<svg width="24" height="20" viewBox="0 0 24 20" fill="none" xmlns="http://www.w3.org/2000/svg">
<path d="M21.5578 4.83976C22.4971 4.13494 23.3426 3.28915 24 2.30241C23.1546 2.67831 22.1684 2.96024 21.1821 3.05421C22.2153 2.44337 22.9668 1.50362 23.3426 0.328916C22.4031 0.892765 21.3229 1.31566 20.2427 1.5506C19.3033 0.563854 18.0353 0 16.6262 0C13.9021 0 11.6947 2.20843 11.6947 4.93373C11.6947 5.30964 11.7417 5.68554 11.8357 6.06144C7.74953 5.82651 4.08611 3.85301 1.64384 0.892765C1.22114 1.59759 0.986303 2.44337 0.986303 3.38314C0.986303 5.0747 1.8317 6.57831 3.19374 7.47108C2.39531 7.42409 1.59687 7.23615 0.939337 6.86024V6.90722C0.939337 9.30361 2.63014 11.2771 4.88455 11.747C4.50882 11.841 4.03915 11.9349 3.61645 11.9349C3.28768 11.9349 3.00588 11.888 2.67712 11.841C3.28768 13.8145 5.11938 15.2241 7.27986 15.271C5.58905 16.5867 3.47554 17.3856 1.17417 17.3856C0.751469 17.3856 0.375735 17.3385 0 17.2916C2.16048 18.7011 4.74365 19.5 7.56167 19.5C16.6262 19.5 21.5578 12.0289 21.5578 5.49759C21.5578 5.26266 21.5578 5.0747 21.5578 4.83976Z" fill="#F8F9FC"/>
</svg>
