<svg width="42" height="42" viewBox="0 0 42 42" fill="none" xmlns="http://www.w3.org/2000/svg">
<path d="M0 0H42V42H0V0Z" fill="url(#paint0_linear_1345_236)"/>
<path d="M13.6583 30.5769L13.6622 30.5782L12.2452 33.0324C11.728 33.9283 10.5824 34.2352 9.68651 33.718C8.79069 33.2008 8.48373 32.0552 9.00093 31.1594L10.0448 29.3514L10.1449 29.1779C10.3239 28.9207 10.7653 28.477 11.6485 28.5604C11.6485 28.5604 13.7266 28.7859 13.877 29.866C13.877 29.866 13.8975 30.2215 13.6583 30.5769V30.5769ZM33.7558 24.3084H29.3372C29.0363 24.2883 28.9048 24.1808 28.8533 24.1183L28.85 24.1126L24.1199 15.92L24.1138 15.9241L23.8301 15.5174C23.3653 14.8064 22.627 16.6248 22.627 16.6248C21.7456 18.6509 22.7521 20.9546 23.103 21.6508L29.6728 33.0299C30.1899 33.9257 31.3355 34.2327 32.2314 33.7155C33.1272 33.1983 33.4342 32.0527 32.917 31.1568L31.2741 28.3114C31.2424 28.2425 31.1869 28.0553 31.5238 28.0545H33.7558C34.7903 28.0545 35.6289 27.2159 35.6289 26.1815C35.6289 25.147 34.7903 24.3084 33.7558 24.3084ZM25.1734 26.8548C25.1734 26.8548 25.4092 28.0545 24.4966 28.0545H23.584V28.0545H8.16212C7.12767 28.0545 6.28906 27.2159 6.28906 26.1815C6.28906 25.147 7.12767 24.3084 8.16212 24.3084H12.3615C13.0395 24.2691 13.2003 23.8777 13.2003 23.8777L13.204 23.8796L18.6856 14.3851L18.684 14.3847C18.7839 14.2013 18.7007 14.028 18.6862 14.0006L16.8759 10.8651C16.3587 9.96921 16.6656 8.82365 17.5615 8.30644C18.4574 7.78919 19.6029 8.09615 20.1201 8.99202L20.9597 10.4463L21.7978 8.9946C22.3151 8.09874 23.4606 7.79178 24.3565 8.30902C25.2523 8.82627 25.5593 9.97184 25.0421 10.8677L17.4142 24.0795C17.3808 24.1599 17.3706 24.2862 17.6188 24.3084H22.1783L22.1793 24.3528C22.1793 24.3528 24.8145 24.3938 25.1734 26.8548Z" fill="white"/>
<defs>
<linearGradient id="paint0_linear_1345_236" x1="21" y1="42" x2="21" y2="0" gradientUnits="userSpaceOnUse">
<stop stop-color="#1D76F2"/>
<stop offset="1" stop-color="#1AC2FB"/>
</linearGradient>
</defs>
</svg>
