<svg width="100" height="100" viewBox="0 0 100 100" fill="none" xmlns="http://www.w3.org/2000/svg">
<path fill-rule="evenodd" clip-rule="evenodd" d="M50 5.55558C61.7874 5.55558 73.0919 10.2381 81.4269 18.5731C89.7619 26.9079 94.4444 38.2124 94.4444 50C94.4444 61.7875 89.7619 73.0919 81.4269 81.4268C73.0919 89.7618 61.7874 94.4443 50 94.4443V100C63.2608 100 75.9786 94.7322 85.3553 85.3552C94.7323 75.9785 100 63.2609 100 50C100 36.7391 94.7323 24.0214 85.3553 14.6446C75.9786 5.26781 63.2608 0 50 0V5.55558ZM42.3611 16.7524C42.3611 17.6634 42.5403 18.6189 42.6913 19.3121C42.8621 20.0964 43.0913 20.9532 43.3416 21.8004C43.8411 23.4912 44.4855 25.3446 45.0891 26.8371C47.9961 34.0241 52.6603 40.3177 58.6224 45.1215L-7.62939e-06 45.1215V54.8439L58.6689 54.8439C52.6845 59.6522 48.0036 65.96 45.0891 73.1659C44.4855 74.658 43.8411 76.5114 43.3416 78.2022C43.0913 79.0494 42.8621 79.9064 42.6913 80.6905C42.5403 81.3839 42.3611 82.3392 42.3611 83.2502H52.0833L52.0828 83.311C52.0825 83.326 52.0821 83.336 52.0828 83.336C52.0833 83.336 52.0846 83.3269 52.0874 83.308C52.097 83.2447 52.1228 83.0714 52.1905 82.7605C52.2958 82.2777 52.4575 81.6609 52.6653 80.9572C53.0821 79.5467 53.6245 77.9919 54.1019 76.811C56.7396 70.2897 61.1989 64.7344 66.8978 60.8347C72.5956 56.936 79.2816 54.8625 86.1111 54.8625V54.8439V45.1402V45.1215H84.9906C78.5523 44.9074 72.2836 42.8532 66.8978 39.1681C61.1989 35.2682 56.7396 29.7131 54.1019 23.1916C53.6245 22.0107 53.0821 20.4561 52.6653 19.0454C52.4575 18.3421 52.2958 17.7251 52.1905 17.2422C52.1228 16.9312 52.097 16.7581 52.0874 16.6947C52.0846 16.6757 52.0833 16.6666 52.0828 16.6666C52.0821 16.6667 52.0825 16.6744 52.0828 16.6894L52.0833 16.7524H42.3611Z" fill="#FECE00"/>
</svg>
