<svg width="141" height="32" viewBox="0 0 141 32" fill="none" xmlns="http://www.w3.org/2000/svg">
<path d="M58.556 30.5938C61.4749 30.5938 63.8424 28.2148 63.8424 25.2817C63.8424 22.3487 61.4749 19.9697 58.556 19.9697C55.637 19.9697 53.2695 22.3487 53.2695 25.2817C53.2695 28.2148 55.637 30.5938 58.556 30.5938Z" fill="#F47920"/>
<path d="M58.5663 20.2686C56.1272 20.2686 54.1494 22.2559 54.1494 24.7068C54.1494 24.9465 54.168 25.181 54.2051 25.4074C54.7751 23.9076 56.3366 22.8313 58.1712 22.8313C59.7036 22.8313 61.0451 23.5826 61.7768 24.7041H61.7901C62.2647 24.7041 62.665 24.856 62.9593 25.1144C62.9725 24.9812 62.9778 24.8426 62.9778 24.7068C62.9778 22.2559 61 20.2712 58.5636 20.2712L58.5663 20.2686Z" fill="#FFCA06"/>
<path d="M62.9648 25.1144C62.6678 24.8533 62.2675 24.7041 61.7956 24.7041H61.7823C60.4832 24.7121 59.1152 25.8443 58.7255 27.2456C58.5161 27.9915 58.6274 28.6601 58.9721 29.1263C58.8395 29.1397 58.707 29.145 58.5691 29.145C56.3686 29.145 54.5446 27.5279 54.2079 25.4101C54.0568 25.8043 53.9746 26.2279 53.9746 26.6701C53.9746 27.7571 54.4677 28.7347 55.2631 29.4327C55.7536 29.8243 56.3129 30.1333 56.9227 30.3331C57.4397 30.501 57.9885 30.5942 58.5611 30.5942C60.1465 30.5942 61.5649 29.8936 62.5353 28.7827C62.8693 28.3991 63.1503 27.9702 63.3624 27.5013C63.3942 27.4161 63.4234 27.3308 63.4446 27.2429C63.6938 26.3505 63.4844 25.5646 62.9648 25.1117V25.1144Z" fill="#ED1C2C"/>
<path d="M91.6528 24.8631V29.2374C91.6528 29.2826 91.6184 29.3173 91.5733 29.3173H90.5553C90.5102 29.3173 90.4757 29.2826 90.4757 29.2374V25.2467C90.4757 23.9839 89.7864 23.2407 88.6013 23.2407C87.4163 23.2407 86.5917 24.0266 86.5917 25.276V29.2374C86.5917 29.2826 86.5573 29.3173 86.5122 29.3173H85.4942C85.4491 29.3173 85.4146 29.2826 85.4146 29.2374V25.2467C85.4146 23.9839 84.7253 23.2407 83.5402 23.2407C82.4426 23.2407 81.5227 23.9973 81.5227 25.276V29.2374C81.5227 29.2826 81.4882 29.3173 81.4432 29.3173H80.433C80.388 29.3173 80.3535 29.2826 80.3535 29.2374V22.3456C80.3535 22.3003 80.388 22.2657 80.433 22.2657H81.4352C81.4803 22.2657 81.5147 22.3003 81.5147 22.3456V22.9317C81.5147 23.0063 81.6049 23.0409 81.6526 22.9849C82.212 22.3456 83.0206 22.1191 83.747 22.1191C84.8473 22.1191 85.7274 22.5907 86.1994 23.3766C86.2312 23.4298 86.3054 23.4298 86.3372 23.3766C86.9125 22.4308 87.92 22.1191 88.8108 22.1191C90.4943 22.1191 91.6502 23.2167 91.6502 24.8604L91.6528 24.8631Z" fill="white"/>
<path d="M99.9012 25.6923C99.9012 27.7622 98.4006 29.262 96.4918 29.262C95.5029 29.262 94.7499 28.9104 94.2223 28.3536C94.1746 28.303 94.0871 28.3376 94.0871 28.4096V31.9207C94.0871 31.966 94.0527 32.0006 94.0076 32.0006H92.9975C92.9524 32.0006 92.918 31.966 92.918 31.9207V22.3436C92.918 22.2983 92.9524 22.2637 92.9975 22.2637H94.0076C94.0527 22.2637 94.0871 22.2983 94.0871 22.3436V22.9697C94.0871 23.0416 94.1746 23.0789 94.2223 23.0256C94.7499 22.4715 95.5029 22.1172 96.4918 22.1172C98.4006 22.1172 99.9012 23.617 99.9012 25.6869V25.6923ZM94.0129 25.6923C94.0129 27.0989 94.9753 28.1591 96.3539 28.1591C97.7325 28.1591 98.6949 27.0562 98.6949 25.6923C98.6949 24.3283 97.7484 23.2307 96.3539 23.2307C94.9594 23.2307 94.0129 24.291 94.0129 25.6923Z" fill="white"/>
<path d="M113.165 23.7155C113.144 23.7555 113.094 23.7688 113.054 23.7448C112.603 23.4624 111.779 23.1561 110.928 23.1561C109.995 23.1561 109.39 23.553 109.39 24.1737C109.39 24.7225 109.886 24.9729 110.71 25.0741L111.5 25.1754C112.951 25.3698 113.807 25.9826 113.807 27.1148C113.807 28.4201 112.643 29.2646 110.785 29.2646C109.963 29.2646 108.86 29.0701 107.974 28.4308C107.94 28.4068 107.932 28.3562 107.953 28.3216L108.412 27.581C108.436 27.541 108.489 27.533 108.528 27.5597C109.029 27.9326 109.703 28.2363 110.793 28.2363C111.882 28.2363 112.601 27.8687 112.601 27.192C112.601 26.6885 112.155 26.3688 111.23 26.2543L110.44 26.1611C108.91 25.9746 108.17 25.2819 108.17 24.243C108.17 22.9296 109.255 22.1357 110.914 22.1357C111.959 22.1357 112.913 22.4075 113.574 22.8364C113.608 22.8604 113.621 22.9056 113.6 22.9429L113.165 23.7182V23.7155Z" fill="white"/>
<path d="M119.151 23.7155C119.13 23.7555 119.08 23.7688 119.04 23.7448C118.589 23.4624 117.765 23.1561 116.914 23.1561C115.981 23.1561 115.376 23.553 115.376 24.1737C115.376 24.7225 115.872 24.9729 116.696 25.0741L117.486 25.1754C118.937 25.3698 119.79 25.9826 119.79 27.1148C119.79 28.4201 118.626 29.2646 116.768 29.2646C115.946 29.2646 114.843 29.0701 113.958 28.4308C113.923 28.4068 113.915 28.3562 113.936 28.3216L114.395 27.581C114.419 27.541 114.472 27.533 114.509 27.5597C115.01 27.9326 115.684 28.2363 116.773 28.2363C117.863 28.2363 118.581 27.8687 118.581 27.192C118.581 26.6885 118.136 26.3688 117.211 26.2543L116.421 26.1611C114.891 25.9746 114.151 25.2819 114.151 24.243C114.151 22.9296 115.236 22.1357 116.895 22.1357C117.94 22.1357 118.894 22.4075 119.554 22.8364C119.589 22.8604 119.602 22.9056 119.581 22.9429L119.146 23.7182L119.151 23.7155Z" fill="white"/>
<path d="M70.9524 27.4583C70.9206 27.4263 70.8728 27.4263 70.841 27.4583C69.8336 28.4146 68.4072 28.388 67.4634 27.437C66.4931 26.4619 66.4904 24.9994 67.4979 23.9817C68.4894 22.9854 69.9052 22.9774 70.8728 23.8965C70.9046 23.9258 70.9524 23.9285 70.9842 23.8965L71.6523 23.2252C71.6841 23.1932 71.6841 23.1399 71.6523 23.1079C70.1915 21.696 68.0626 21.712 66.6495 23.1293C65.2179 24.5678 65.2232 26.747 66.684 28.2148C68.1262 29.6641 70.2551 29.6934 71.6894 28.3161C71.7212 28.2841 71.7212 28.2308 71.6894 28.1989L70.9497 27.4556L70.9524 27.4583Z" fill="white"/>
<path d="M73.4455 25.6894C73.4879 25.6894 73.5224 25.6548 73.525 25.6095C73.5648 24.2162 74.5908 23.2252 75.927 23.2252C77.2632 23.2252 78.3316 24.2562 78.3316 25.6921C78.3316 27.128 77.3374 28.1137 76.0039 28.151C75.9615 28.151 75.9244 28.1856 75.9244 28.2309V29.1819C75.9244 29.2272 75.9615 29.2645 76.0066 29.2645C78.0321 29.2246 79.5273 27.7008 79.5273 25.6948C79.5273 23.6888 77.9896 22.125 75.9244 22.125C73.8591 22.125 72.3559 23.6168 72.3135 25.6095C72.3135 25.6548 72.3506 25.6921 72.3957 25.6921H73.4429L73.4455 25.6894Z" fill="white"/>
<path d="M107.17 22.2665H106.16C106.115 22.2665 106.081 22.3011 106.081 22.3464V22.9591C105.46 22.3997 104.633 22.0693 103.7 22.0693C101.674 22.0693 100.145 23.6145 100.145 25.6897C100.145 27.765 101.629 29.2755 103.612 29.3181C103.657 29.3181 103.697 29.2808 103.697 29.2355V28.1832C103.697 28.1406 103.663 28.106 103.618 28.1033C102.231 28.0633 101.245 27.0324 101.245 25.6871C101.245 24.3417 102.271 23.2708 103.7 23.2708C104.917 23.2708 106.083 24.126 106.083 25.1036V29.2355C106.083 29.2808 106.118 29.3154 106.163 29.3154H107.173C107.218 29.3154 107.252 29.2808 107.252 29.2355V22.3437C107.252 22.3011 107.215 22.2638 107.17 22.2638V22.2665Z" fill="white"/>
<path d="M76.6845 26.4303L77.0265 25.149C77.1008 24.8746 76.8489 24.6242 76.5758 24.6961L75.3003 25.0397C75.0272 25.1143 74.9344 25.4553 75.1359 25.6578L76.0693 26.5955C76.2682 26.7953 76.6102 26.7047 76.6845 26.4303Z" fill="#FFCA06"/>
<path d="M121.53 29.3308C122.005 29.3308 122.389 28.9443 122.389 28.4676C122.389 27.9909 122.005 27.6045 121.53 27.6045C121.056 27.6045 120.671 27.9909 120.671 28.4676C120.671 28.9443 121.056 29.3308 121.53 29.3308Z" fill="white"/>
<path d="M140.692 26.7786C139.862 26.7786 139.48 26.3524 139.48 25.5186V20.3877H136.938V24.1972C136.36 22.9505 135.101 22.0873 133.642 22.0873C132.184 22.0873 130.925 22.9505 130.347 24.1972V22.1646H127.836V25.7503C127.836 26.3977 127.497 26.8346 126.93 26.8346C126.362 26.8346 126.023 26.395 126.023 25.7503V22.1646H123.48V25.7823C123.48 27.9961 124.833 29.3894 126.927 29.3894C128.608 29.3894 129.809 28.4516 130.204 26.9332C130.694 28.3637 132.046 29.3894 133.637 29.3894C135.228 29.3894 136.543 28.3904 137.052 26.9891C137.428 28.6141 138.651 29.3334 140.292 29.3334H140.936V26.7786H140.687H140.692ZM133.645 26.8319C133.046 26.8319 132.555 26.3391 132.555 25.737C132.555 25.135 133.046 24.6421 133.645 24.6421C134.244 24.6421 134.735 25.135 134.735 25.737C134.735 26.3391 134.244 26.8319 133.645 26.8319Z" fill="white"/>
<path d="M39.0706 27.7275C38.7604 27.7275 38.4873 27.6503 38.254 27.4958C38.0207 27.3413 37.8643 27.1335 37.7874 26.8697H37.8669V27.653H36.9629V22.2637H37.8749V24.7092H37.7874C37.8696 24.4561 38.0287 24.2537 38.262 24.1045C38.4953 23.9553 38.7657 23.8807 39.0706 23.8807C39.3967 23.8807 39.6803 23.958 39.9242 24.1152C40.1682 24.2723 40.3564 24.4934 40.4916 24.7785C40.6268 25.0635 40.6958 25.4072 40.6958 25.8068C40.6958 26.2064 40.6268 26.5501 40.4916 26.8351C40.3564 27.1202 40.1655 27.3413 39.919 27.4931C39.6751 27.6476 39.3914 27.7249 39.0706 27.7249V27.7275ZM38.8161 27.0242C39.1024 27.0242 39.3357 26.923 39.5107 26.7232C39.6883 26.5234 39.7758 26.2171 39.7758 25.8068C39.7758 25.3965 39.6883 25.0902 39.5107 24.8877C39.333 24.6853 39.1024 24.584 38.8161 24.584C38.5297 24.584 38.2991 24.6852 38.1241 24.885C37.9491 25.0849 37.8616 25.3912 37.8616 25.7988C37.8616 26.2064 37.9491 26.5154 38.1241 26.7179C38.2991 26.9203 38.5297 27.0216 38.8161 27.0216V27.0242Z" fill="white"/>
<path d="M42.6474 29.3156L42.4353 28.591C42.6633 28.543 42.8542 28.4871 43.0106 28.4231C43.167 28.3592 43.2943 28.2766 43.3977 28.1754C43.5011 28.0742 43.5859 27.941 43.6522 27.7811L43.8351 27.3496L43.8139 27.7092L42.21 23.9609H43.1803L44.3309 26.8461H44.1188L45.2774 23.9609H46.1947L44.5191 27.8637C44.4078 28.1274 44.2858 28.3459 44.1559 28.5191C44.0234 28.6922 43.8829 28.8307 43.7317 28.9373C43.5806 29.0412 43.4162 29.1238 43.236 29.1824C43.0557 29.241 42.8595 29.2863 42.6448 29.3209L42.6474 29.3156Z" fill="white"/>
<path d="M7.47366 0C10.7001 0 13.407 1.98735 14.3641 5.01898H12.0549C11.2224 3.22078 9.66089 2.00866 7.47632 2.00866C4.47784 2.00866 2.18987 4.41426 2.18987 7.53114C2.18987 10.648 4.48049 13.0536 7.47632 13.0536C9.66089 13.0536 11.2224 11.8415 12.0549 10.0433H14.3641C13.407 13.0749 10.7001 15.0623 7.47366 15.0623C3.24769 15.0623 0 11.7776 0 7.5338C0 3.29004 3.24769 0.00533321 7.47366 0.00533321V0Z" fill="white"/>
<path d="M29.1023 10.1447V14.8494H27.0211V10.3738C27.0211 9.16172 26.3344 8.53302 25.0036 8.53302H19.4255V14.8494H17.3867V0.208008H28.9167V0.836717C28.9167 3.28494 28.2512 5.35487 26.4405 6.79876C28.1691 7.07049 29.1049 8.53569 29.1049 10.1447H29.1023ZM26.6261 2.13408H19.4255V6.5883H21.7559C24.9399 6.5883 26.4193 4.45443 26.6261 2.13408Z" fill="white"/>
<path d="M43.6697 0.210938V4.2469C43.6697 6.5486 41.6521 8.72243 38.7783 8.78636V14.8523H36.6971V8.78636C33.8259 8.72243 31.8057 6.5486 31.8057 4.2469V0.210938H33.8868V4.2469C33.8868 5.64817 35.178 6.83898 36.8217 6.83898H38.6537C40.2974 6.83898 41.5885 5.64817 41.5885 4.2469V0.210938H43.6697Z" fill="white"/>
<path d="M58.2413 0.210938V0.839646C58.2413 6.02646 54.3069 9.31117 49.0841 9.31117V14.8523H47.0029V0.210938H58.2439H58.2413ZM56.0567 2.13435H49.0841V7.40641C52.8514 7.40641 55.4947 5.33648 56.0567 2.13435Z" fill="white"/>
<path d="M75.6201 7.5314C75.6201 3.28498 78.9288 0.00292969 83.2184 0.00292969C87.508 0.00292969 90.8167 3.28765 90.8167 7.5314C90.8167 11.7752 87.508 15.0599 83.2184 15.0599C78.9288 15.0599 75.6201 11.7752 75.6201 7.5314ZM88.6294 7.5314C88.6294 4.41452 86.2778 2.00892 83.2184 2.00892C80.1589 2.00892 77.8073 4.41452 77.8073 7.5314C77.8073 10.6483 80.1589 13.0539 83.2184 13.0539C86.2778 13.0539 88.6294 10.6483 88.6294 7.5314Z" fill="white"/>
<path d="M105.363 11.5887V14.8521H93.6453L93.624 0.210722H95.6442V2.05155C96.5403 0.714219 98.017 0.00292969 99.9312 0.00292969C102.699 0.00292969 104.865 1.61199 104.865 4.12414C104.865 5.54672 104.136 6.84409 102.847 7.55538C104.47 8.18142 105.366 9.66793 105.366 11.5913L105.363 11.5887ZM95.7052 6.54839V6.71622H99.8888C101.909 6.71622 102.72 5.75451 102.72 4.268C102.72 2.78149 101.66 1.77982 99.743 1.77982C97.288 1.77982 95.7052 3.49544 95.7052 6.54839ZM103.282 12.926V11.8178C103.282 9.5374 102.116 8.53306 99.6396 8.53306H95.7052V12.926H103.282Z" fill="white"/>
<path d="M110.67 0.210938V14.8523H108.589V0.210938H110.67Z" fill="white"/>
<path d="M126.594 14.8494H124.512C124.512 11.1278 122.41 8.45043 118.455 8.45043H116.872V14.8494H114.833V0.208008H116.872V6.60961H118.455C121.93 6.60961 124.221 4.39316 124.221 0.208008H126.302C126.302 3.4501 124.95 6.39916 122.182 7.4248C125.117 8.47175 126.594 11.4821 126.594 14.8494Z" fill="white"/>
<path d="M140.997 10.27C140.478 13.3229 137.938 15.0599 134.587 15.0599C130.987 15.0599 128.675 13.4082 128.675 10.627C128.675 9.18308 129.361 7.99227 130.965 7.3023C129.653 6.59101 129.03 5.44016 129.009 4.14279C128.966 1.65461 131.278 0.00292969 134.775 0.00292969C137.607 0.00292969 140.29 1.55071 140.791 4.60366H138.625C138.272 2.78415 136.586 2.00892 134.754 2.00892C132.485 2.00892 131.196 2.86673 131.196 4.28931C131.196 5.46147 132.132 6.56969 134.131 6.56969H136.461V8.4718H134.131C131.53 8.4718 130.822 9.51874 130.822 10.6057C130.822 12.0709 132.135 13.0539 134.59 13.0539C136.734 13.0539 138.169 12.2174 138.877 10.2727H141L140.997 10.27Z" fill="white"/>
<path d="M73.7479 5.21039H71.7489V2.1974H67.918V14.8301H65.8368V2.1974H62.0058V5.21039H60.0068V0.191406H73.7452V5.21039H73.7479Z" fill="white"/>
<path d="M71.7436 8.85449H69.7178V11.8435H71.7436V8.85449Z" fill="white"/>
<path d="M64.0346 11.8809H62.0088V14.8699H64.0346V11.8809Z" fill="white"/>
</svg>
