<svg width="360" height="168" viewBox="0 0 360 168" fill="none" xmlns="http://www.w3.org/2000/svg">
<path fill-rule="evenodd" clip-rule="evenodd" d="M-28.9049 28C-28.9049 28 19.9033 135.565 91.3826 135.565C162.862 135.565 186.002 38.3171 266.19 51.3218C346.378 64.3266 406.039 122.266 455.007 117.182C455.007 125.6 462 129.067 462 129.067L445.016 168H297.959H-50.0001L-28.9049 28Z" fill="#303030" fill-opacity="0.4"/>
<path fill-rule="evenodd" clip-rule="evenodd" d="M689.889 3.60189C689.889 3.60189 647.531 114.817 576.083 122.887C504.635 130.957 502.554 65.8345 422.7 86.8873C342.846 107.94 343.536 148.001 274.489 165.072C243.953 172.622 184.93 -7.70547 69.5898 93.8965C-74.0703 163.858 -74.0703 163.858 -74.0703 163.858L5.50006 168L85 168L303 168L398 168L493 170L689.693 168.486L689.889 3.60189Z" fill="#303030" fill-opacity="0.3"/>
</svg>
