<svg width="1366" height="345" viewBox="0 0 1366 345" fill="none" xmlns="http://www.w3.org/2000/svg">
<path fill-rule="evenodd" clip-rule="evenodd" d="M-224.98 55.5815C-224.98 55.5815 -7.49164 283.797 311.02 283.797C629.531 283.797 727.26 27.7859 1084.58 55.3775C1441.89 82.9692 1627.32 252.914 1845.52 242.128C1681.82 261.953 1740.52 283.797 1740.52 283.797L1911.52 346.587L1231.52 352.614L-318.98 339.287L-224.98 55.5815Z" fill="#303030" fill-opacity="0.4"/>
<path fill-rule="evenodd" clip-rule="evenodd" d="M2952.54 8.46716C2952.54 8.46716 2763.97 242.158 2445.91 259.115C2127.85 276.071 2118.58 139.233 1763.1 183.471C1407.62 227.708 1409.73 302.747 1102.36 338.617C966.422 354.481 704.622 -15.2924 191.166 198.199C-448.362 345.206 -448.362 345.206 -448.362 345.206L1252.93 339.331L2101.83 336.702L2951.66 354.93L2952.54 8.46716Z" fill="#303030" fill-opacity="0.3"/>
</svg>
