<svg width="42" height="32" viewBox="0 0 42 32" fill="none" xmlns="http://www.w3.org/2000/svg">
<g clip-path="url(#clip0_1750_1209)">
<path fill-rule="evenodd" clip-rule="evenodd" d="M0 0H59.85V2.46253H0V0ZM0 4.925H59.85V7.38753H0V4.925ZM0 9.84373H59.85V12.3125H0V9.84373ZM0 14.7687H59.85V17.2313H0V14.7687ZM0 19.6937H59.85V22.1563H0V19.6937ZM0 24.6125H59.85V27.075H0V24.6125ZM0 29.5375H59.85V32H0V29.5375Z" fill="#BD3D44"/>
<path fill-rule="evenodd" clip-rule="evenodd" d="M0 2.46265H59.85V4.92511H0V2.46265ZM0 7.38758H59.85V9.84385H0V7.38758ZM0 12.3064H59.85V14.7688H0V12.3064ZM0 17.2314H59.85V19.6938H0V17.2314ZM0 22.1564H59.85V24.6188H0V22.1564ZM0 27.0751H59.85V29.5376H0V27.0751Z" fill="white"/>
<path fill-rule="evenodd" clip-rule="evenodd" d="M0 0H23.9388V17.2313H0V0Z" fill="#192F5D"/>
<path fill-rule="evenodd" clip-rule="evenodd" d="M1.99313 0.737549L2.21462 1.41868H2.91602L2.34993 1.83748L2.56532 2.52495L1.99313 2.09995L1.42712 2.51868L1.64243 1.83748L1.07031 1.41868H1.78398L1.99313 0.737549ZM5.98602 0.737549L6.20133 1.41868H6.90884L6.33665 1.83748L6.55203 2.52495L5.98602 2.09995L5.41383 2.51868L5.62915 1.83748L5.06313 1.41868H5.76453L5.98602 0.737549ZM9.97274 0.737549L10.1942 1.41875H10.8895L10.3234 1.83755L10.5387 2.52502L9.96657 2.10002L9.40055 2.51875L9.61587 1.83755L9.04368 1.41875H9.75125L9.97274 0.737549ZM13.9656 0.737549L14.1809 1.41875H14.8884L14.3163 1.83755L14.5377 2.52502L13.9656 2.10002L13.3934 2.51875L13.6149 1.83755L13.0427 1.41875H13.7441L13.9656 0.737549ZM17.9523 0.737549L18.1738 1.41875H18.8752L18.3091 1.83755L18.5245 2.52502L17.9523 2.10002L17.3863 2.51875L17.6016 1.83755L17.0356 1.41875H17.737L17.9523 0.737549ZM21.9452 0.737549L22.1605 1.41875H22.868L22.2959 1.83755L22.5173 2.52502L21.9452 2.10002L21.373 2.51875L21.5945 1.83755L21.0223 1.41875H21.7299L21.9452 0.737549ZM3.99266 2.46242L4.20797 3.14375H4.91548L4.34329 3.56242L4.55251 4.24375L3.99876 3.82495L3.42664 4.24368L3.62962 3.56248L3.07594 3.14368H3.77734L3.99266 2.46242ZM7.97938 2.46242L8.20086 3.14375H8.9022L8.33001 3.56242L8.55156 4.24375L7.97931 3.82495L7.40719 4.24368L7.62868 3.56248L7.05649 3.14368H7.764L7.97938 2.46242ZM11.9723 2.46242L12.1875 3.14375H12.8951L12.3229 3.56242L12.5382 4.24375L11.9722 3.82495L11.4001 4.24368L11.6154 3.56255L11.0494 3.14375H11.7508L11.9723 2.46242ZM15.959 2.46242L16.1805 3.14375H16.8818L16.3096 3.56242L16.5311 4.24375L15.9589 3.82495L15.3929 4.24368L15.6083 3.56248L15.0361 3.14368H15.7498L15.959 2.46242ZM19.9518 2.46242L20.1671 3.14375H20.8747L20.3025 3.56242L20.5178 4.24375L19.9518 3.82495L19.3796 4.24368L19.595 3.56248L19.029 3.14368H19.7303L19.9518 2.46242ZM1.99313 4.18135L2.21462 4.87508H2.91602L2.34993 5.29382L2.56532 5.97508L1.99313 5.55008L1.42712 5.97508L1.64243 5.28755L1.07031 4.86888H1.78398L1.99313 4.18135ZM5.98602 4.18135L6.20133 4.86868H6.90884L6.33665 5.28742L6.55203 5.96875L5.98602 5.54368L5.41383 5.96868L5.62915 5.28122L5.06313 4.86248H5.76453L5.98602 4.18135ZM9.97274 4.18135L10.1942 4.86882H10.8895L10.3234 5.28755L10.5387 5.96888L9.96657 5.54382L9.40055 5.96882L9.61587 5.28135L9.04368 4.86262H9.75125L9.97274 4.18135ZM13.9656 4.18135L14.1809 4.86882H14.8884L14.3163 5.28755L14.5377 5.96888L13.9656 5.54382L13.3934 5.96882L13.6149 5.28135L13.0427 4.86262H13.7441L13.9656 4.18135ZM17.9523 4.18135L18.1738 4.86882H18.8752L18.3091 5.28748L18.5245 5.96882L17.9523 5.54375L17.3863 5.96875L17.6016 5.28128L17.0356 4.86255H17.737L17.9523 4.18135ZM21.9452 4.18135L22.1605 4.86882H22.868L22.2959 5.28755L22.5173 5.96888L21.9452 5.54382L21.373 5.96882L21.5945 5.28135L21.0223 4.86262H21.7299L21.9452 4.18135ZM3.99266 5.90628L4.20797 6.58755H4.91548L4.34329 7.00622L4.55868 7.69375L3.99266 7.26875L3.42048 7.68748L3.63579 7.00628L3.06977 6.58755H3.77124L3.99266 5.90628ZM7.97938 5.90628L8.20086 6.58755H8.9022L8.33001 7.00622L8.55156 7.69375L7.97931 7.26875L7.40719 7.68748L7.62868 7.00628L7.05649 6.58755H7.764L7.97938 5.90628ZM11.9723 5.90628L12.1875 6.58755H12.8951L12.3229 7.00622L12.5382 7.69375L11.9722 7.26875L11.4001 7.68748L11.6154 7.00628L11.0494 6.58755H11.7508L11.9723 5.90628ZM15.959 5.90628L16.1805 6.58755H16.8818L16.3158 7.00622L16.5311 7.69375L15.9589 7.26875L15.3929 7.68748L15.6083 7.00628L15.0361 6.58755H15.7498L15.959 5.90628ZM19.9518 5.90628L20.1671 6.58755H20.8747L20.3025 7.00622L20.5178 7.69375L19.9518 7.26875L19.3796 7.68748L19.595 7.00628L19.029 6.58755H19.7303L19.9518 5.90628ZM1.99313 7.63128L2.21462 8.31255H2.91602L2.34993 8.73122L2.56532 9.41875L1.99313 8.99375L1.42712 9.41248L1.64243 8.73128L1.07031 8.31255H1.78398L1.99313 7.63128ZM5.98602 7.63128L6.20133 8.31255H6.90884L6.33665 8.73122L6.55203 9.41255L5.98602 8.99375L5.41383 9.41248L5.62915 8.73128L5.06313 8.31255H5.76453L5.98602 7.63128ZM9.97274 7.63128L10.1942 8.31255H10.8895L10.3234 8.73122L10.5387 9.41875L9.96657 8.99375L9.40055 9.41248L9.61587 8.73128L9.04368 8.31255H9.75125L9.97274 7.63128ZM13.9656 7.63128L14.1809 8.31255H14.8884L14.3163 8.73122L14.5377 9.41875L13.9656 8.99375L13.3934 9.41248L13.6149 8.73128L13.0427 8.31255H13.7441L13.9656 7.63128ZM17.9523 7.63128L18.1738 8.31255H18.8752L18.3091 8.73122L18.5245 9.41875L17.9523 8.99375L17.3863 9.41248L17.6016 8.73128L17.0356 8.31255H17.737L17.9523 7.63128ZM21.9452 7.63128L22.1605 8.31255H22.868L22.2959 8.73122L22.5173 9.41875L21.9452 8.99375L21.373 9.41248L21.5945 8.73128L21.0223 8.31255H21.7299L21.9452 7.63128ZM3.99266 9.35628L4.20797 10.0375H4.91548L4.34329 10.4562L4.55868 11.1375L3.99266 10.7125L3.42048 11.1375L3.63579 10.45L3.06977 10.0313H3.77124L3.99266 9.35628ZM7.97938 9.35628L8.20086 10.0375H8.9022L8.33001 10.4562L8.55156 11.1375L7.97931 10.7125L7.40719 11.1375L7.62868 10.45L7.05649 10.0313H7.764L7.97938 9.35628ZM11.9723 9.35628L12.1875 10.0375H12.8951L12.3229 10.4562L12.5382 11.1375L11.9722 10.7125L11.4001 11.1375L11.6154 10.45L11.0494 10.0313H11.7508L11.9723 9.35628ZM15.959 9.35628L16.1805 10.0375H16.8818L16.3158 10.4562L16.5311 11.1375L15.9589 10.7125L15.3929 11.1375L15.6083 10.45L15.0361 10.0313H15.7498L15.959 9.35628ZM19.9518 9.35628L20.1671 10.0375H20.8747L20.3025 10.4562L20.5178 11.1375L19.9518 10.7125L19.3796 11.1375L19.595 10.45L19.029 10.0313H19.7303L19.9518 9.35628ZM1.99313 11.075L2.21462 11.7625H2.91602L2.34993 12.1812L2.56532 12.8563L1.99313 12.4375L1.42712 12.8562L1.64243 12.175L1.07031 11.7563H1.78398L1.99313 11.075ZM5.98602 11.075L6.20133 11.7625H6.90884L6.33665 12.1812L6.5582 12.8563L5.98595 12.4375L5.41383 12.8562L5.63532 12.175L5.06313 11.7563H5.76453L5.98602 11.075ZM9.97274 11.075L10.1942 11.7625H10.8895L10.3234 12.1812L10.5387 12.8563L9.96657 12.4375L9.40055 12.8562L9.61587 12.175L9.04368 11.7563H9.75125L9.97274 11.075ZM13.9656 11.075L14.1809 11.7625H14.8884L14.3163 12.1812L14.5377 12.8563L13.9656 12.4375L13.3934 12.8562L13.6149 12.175L13.0427 11.7563H13.7441L13.9656 11.075ZM17.9523 11.075L18.1738 11.7625H18.8752L18.3091 12.1812L18.5245 12.8563L17.9523 12.4375L17.3863 12.8562L17.6016 12.175L17.0356 11.7563H17.737L17.9523 11.075ZM21.9452 11.075L22.1605 11.7625H22.868L22.2959 12.1812L22.5173 12.8563L21.9452 12.4375L21.373 12.8562L21.5945 12.175L21.0223 11.7563H21.7299L21.9452 11.075ZM3.99266 12.8L4.20797 13.4813H4.91548L4.34329 13.9L4.55868 14.5875L3.99266 14.1625L3.42048 14.5812L3.63579 13.9L3.06977 13.4813H3.77124L3.99266 12.8ZM7.97938 12.8L8.20086 13.4813H8.9022L8.33001 13.9L8.55156 14.5875L7.97931 14.1625L7.40719 14.5812L7.62868 13.9L7.05649 13.4813H7.764L7.97938 12.8ZM11.9723 12.8L12.1875 13.4813H12.8951L12.3229 13.9L12.5382 14.5875L11.9722 14.1625L11.4001 14.5812L11.6154 13.9L11.0494 13.4813H11.7508L11.9723 12.8ZM15.959 12.8L16.1805 13.4813H16.8818L16.3158 13.9L16.5311 14.5875L15.9589 14.1625L15.3929 14.5812L15.6083 13.9L15.0361 13.4813H15.7498L15.959 12.8ZM19.9518 12.8L20.1671 13.4813H20.8747L20.3025 13.9L20.5178 14.5875L19.9518 14.1625L19.3796 14.5812L19.595 13.9L19.029 13.4813H19.7303L19.9518 12.8ZM1.99313 14.525L2.21462 15.2063H2.91602L2.34993 15.625L2.56532 16.3063L1.99313 15.8875L1.42712 16.3062L1.64243 15.6187L1.07031 15.2H1.78398L1.99313 14.525ZM5.98602 14.525L6.20133 15.2063H6.90884L6.33665 15.625L6.5582 16.3063L5.98595 15.8875L5.41383 16.3062L5.63532 15.6187L5.06313 15.2H5.76453L5.98602 14.525ZM9.97274 14.525L10.1942 15.2063H10.8895L10.3357 15.625L10.551 16.3063L9.97884 15.8875L9.41282 16.3062L9.62821 15.6187L9.05602 15.2H9.76353L9.97274 14.525ZM13.9656 14.525L14.1809 15.2063H14.8884L14.3163 15.625L14.5377 16.3063L13.9656 15.8875L13.3934 16.3062L13.6149 15.6187L13.0427 15.2H13.7441L13.9656 14.525ZM17.9523 14.525L18.1738 15.2063H18.8752L18.3091 15.625L18.5245 16.3063L17.9523 15.8875L17.3863 16.3062L17.6016 15.6187L17.0356 15.2H17.737L17.9523 14.525ZM21.9452 14.525L22.1605 15.2063H22.868L22.2959 15.625L22.5173 16.3063L21.9452 15.8875L21.373 16.3062L21.5945 15.6187L21.0223 15.2H21.7299L21.9452 14.525Z" fill="white"/>
</g>
<defs>
<clipPath id="clip0_1750_1209">
<rect width="42" height="32" fill="white"/>
</clipPath>
</defs>
</svg>
