<svg width="53" height="40" viewBox="0 0 53 40" fill="none" xmlns="http://www.w3.org/2000/svg">
<path fill-rule="evenodd" clip-rule="evenodd" d="M0 0H53V40H0V0Z" fill="#DDD9D9"/>
<path fill-rule="evenodd" clip-rule="evenodd" d="M26.6159 36.3332L51.5838 20.0248L26.4668 3.6665L1.41602 20.0582L26.6159 36.3332Z" fill="#DDD9D9"/>
<path fill-rule="evenodd" clip-rule="evenodd" d="M37.4976 20C37.4976 25.8583 32.769 30.6083 26.9307 30.6083C24.8444 30.605 22.8059 29.9794 21.0729 28.8104C19.34 27.6415 17.9903 25.9817 17.1945 24.041C16.3988 22.1003 16.1927 19.9657 16.6023 17.9072C17.012 15.8486 18.0189 13.9585 19.4959 12.4757C20.9728 10.993 22.8535 9.98413 24.9002 9.57677C26.9468 9.16942 29.0676 9.38182 30.9943 10.1871C32.921 10.9925 34.5672 12.3545 35.7247 14.1012C36.8823 15.8478 37.4992 17.9006 37.4976 20Z" fill="#DDD9D9"/>
<path fill-rule="evenodd" clip-rule="evenodd" d="M23.4608 26.3584L23.1295 26.1667L22.7983 26.3334L22.8728 25.9584L22.6078 25.675L22.9805 25.6334L23.1626 25.3L23.32 25.65L23.6844 25.7167L23.4111 25.9667M30.533 28.1584L30.21 27.9667L29.8787 28.1334L29.945 27.7584L29.6883 27.4834L30.0609 27.4417L30.2348 27.1L30.4005 27.45L30.7648 27.5167L30.4833 27.775M27.4854 25.275L27.2039 25.1084L26.914 25.2584L26.9803 24.9334L26.7484 24.6917L27.0797 24.6584L27.2287 24.3584L27.3612 24.6667L27.6842 24.725L27.4358 24.95M34.6404 24.2417L34.3589 24.075L34.069 24.225L34.1353 23.9L33.9117 23.6667L34.2347 23.6334L34.3837 23.3417L34.5162 23.6417L34.8309 23.7L34.5908 23.9167M27.3612 22.0834L27.03 21.9L26.6987 22.0667L26.765 21.6834L26.5083 21.4084L26.8809 21.3667L27.0548 21.025L27.2205 21.375L27.5848 21.4417L27.3033 21.7084M18.6411 18.7917L18.3098 18.6084L17.9786 18.775L18.0614 18.3917L17.7881 18.1167L18.169 18.075L18.3347 17.7334L18.5003 18.0834L18.8647 18.15L18.5914 18.4084M19.6928 23.175L19.3615 22.9834L19.0303 23.15L19.1048 22.775L18.8398 22.5L19.2125 22.45L19.3864 22.1167L19.552 22.4667L19.9164 22.5334L19.6431 22.7917M30.5744 17.1834L30.2762 17.0167L29.9781 17.1667L30.0444 16.8334L29.8125 16.5834L30.1437 16.5417L30.3011 16.2417L30.4419 16.5584L30.7731 16.6167L30.5247 16.8417M29.9698 20.0334L29.7462 19.9L29.5061 20.0167L29.5558 19.75L29.3736 19.5584L29.6386 19.525L29.7628 19.2917L29.8705 19.5417L30.1189 19.5834L29.9367 19.7667M18.1608 23.9667L17.9372 23.8417L17.7136 23.95L17.7633 23.7L17.5894 23.5167L17.8378 23.4834L17.9537 23.2584L18.0614 23.4917L18.3098 23.5417L18.1194 23.7084M34.6984 24.9834L34.5162 24.8917L34.334 24.975L34.3755 24.7834L34.2347 24.65L34.4334 24.625L34.5328 24.4584L34.6156 24.625L34.8226 24.6667L34.6653 24.7917" fill="#DDD9D9"/>
<path fill-rule="evenodd" clip-rule="evenodd" d="M18.1608 23.9666L17.9372 23.8416L17.7136 23.95L17.7633 23.7L17.5894 23.5166L17.8378 23.4833L17.9537 23.2583L18.0614 23.4916L18.3098 23.5416L18.1194 23.7083" fill="#DDD9D9"/>
<path fill-rule="evenodd" clip-rule="evenodd" d="M18.1608 23.9667L17.9372 23.8417L17.7136 23.95L17.7633 23.7L17.5894 23.5167L17.8378 23.4834L17.9537 23.2584L18.0614 23.4917L18.3098 23.5417L18.1194 23.7084M21.6223 23.9584L21.407 23.8417L21.1834 23.95L21.2331 23.7L21.0592 23.5167L21.3076 23.4834L21.4236 23.2584L21.5312 23.4917L21.7797 23.5334L21.5892 23.7084M21.1917 25.125L20.9764 25L20.7528 25.1167L20.8025 24.8667L20.6286 24.675L20.877 24.6417L20.9929 24.4167L21.1006 24.65L21.349 24.7L21.1586 24.8667M28.3964 23.0167L28.1811 22.8834L27.9492 23L27.9989 22.75L27.8333 22.5584L28.0817 22.5334L28.1976 22.3084L28.297 22.5417L28.5455 22.5834L28.3633 22.7584M26.2847 23.0084L26.0611 22.8834L25.8375 23L25.8872 22.75L25.7215 22.5584L25.97 22.5334L26.0859 22.3L26.1853 22.5417L26.4337 22.5834L26.2515 22.7584M20.554 22.275L20.4133 22.1917L20.2725 22.2584L20.3056 22.1L20.1979 21.9834L20.3553 21.9667L20.4215 21.825L20.4878 21.975L20.6451 22L20.5292 22.1084M34.4251 25.8917L34.2098 25.7667L33.9862 25.8834L34.0359 25.6334L33.862 25.4417L34.1104 25.4084L34.2264 25.1834L34.334 25.4167L34.5825 25.4667L34.392 25.6334M32.6695 26.1334L32.4873 26.0167L32.2969 26.1167L32.3383 25.9L32.1975 25.75L32.4045 25.725L32.5039 25.5334L32.5867 25.7334L32.7937 25.7667L32.6364 25.9167M33.4976 26.1084L33.332 26.0084L33.1581 26.0917L33.1912 25.9L33.0587 25.7584L33.2492 25.7334L33.3403 25.5667L33.4231 25.7334L33.6136 25.775L33.4728 25.9084M35.8826 24.0084L35.717 23.925L35.5514 24.0084L35.5928 23.8167L35.4603 23.675L35.6508 23.65L35.7336 23.4834L35.8164 23.6584L35.9903 23.6917L35.8578 23.825M32.6447 27.3084L32.4376 27.1917L32.214 27.2917L32.2637 27.0584L32.0981 26.8917L32.3465 26.8667L32.4542 26.6584L32.5536 26.875L32.802 26.9167L32.6115 27.075M32.6612 28.2584L32.4625 28.1417L32.2637 28.25L32.3134 28.0167L32.1561 27.85L32.3797 27.8167L32.479 27.6084L32.5701 27.825L32.7937 27.8667L32.6281 28.0334M31.0547 26.1084L30.8973 26.0084L30.7317 26.0917L30.7648 25.9084L30.6406 25.7667L30.8228 25.75L30.9056 25.5834L30.9884 25.75L31.1706 25.7834L31.0381 25.9167M29.564 26.1084L29.3984 26.0084L29.2328 26.0917L29.2742 25.9084L29.1417 25.7667L29.3322 25.75L29.415 25.5834L29.4978 25.75L29.6717 25.7834L29.5392 25.9167M27.0217 23.8667L26.8561 23.775L26.6904 23.8584L26.7319 23.6667L26.5994 23.5334L26.7815 23.5084L26.8644 23.3417L26.9472 23.5084L27.1294 23.55L26.9969 23.675M27.3033 28.425L27.1708 28.35L27.0217 28.425L27.0548 28.2584L26.9472 28.1417L27.1045 28.125L27.179 27.9834L27.2453 28.1334L27.4026 28.1584L27.2867 28.2667M23.4608 21.05L23.1295 20.8584L22.7983 21.025L22.8728 20.65L22.6078 20.375L22.9804 20.325L23.1626 19.9917L23.32 20.3417L23.6844 20.4084L23.4111 20.6667" fill="#DDD9D9"/>
<path d="M34.2843 21.0333L34.4747 21.1417C34.4463 21.1983 34.4376 21.2628 34.4499 21.325C34.4693 21.3853 34.5107 21.4359 34.5658 21.4667C34.6238 21.5083 34.6818 21.5333 34.7315 21.525C34.7811 21.525 34.8143 21.5 34.8391 21.4667C34.8536 21.4445 34.8594 21.4179 34.8557 21.3917C34.8489 21.3609 34.8347 21.3323 34.8143 21.3083C34.7977 21.2833 34.7563 21.225 34.69 21.1583C34.622 21.0876 34.571 21.0021 34.541 20.9083C34.5203 20.8374 34.5257 20.7613 34.5561 20.694C34.5865 20.6267 34.6399 20.5727 34.7066 20.5417C34.7668 20.5164 34.8334 20.5105 34.8971 20.525C34.9749 20.543 35.0482 20.5771 35.1124 20.625C35.2283 20.7083 35.3029 20.7917 35.3277 20.8917C35.3392 20.9384 35.3406 20.9871 35.3321 21.0345C35.3235 21.0819 35.3051 21.1269 35.278 21.1667L35.0793 21.0417C35.1041 20.9917 35.1124 20.9417 35.0958 20.9C35.0875 20.8583 35.0544 20.8167 34.9965 20.7833C34.9539 20.7489 34.9019 20.7285 34.8474 20.725C34.8324 20.7245 34.8175 20.7281 34.8044 20.7354C34.7913 20.7428 34.7804 20.7536 34.7729 20.7667C34.7563 20.7917 34.7563 20.8167 34.7646 20.85C34.7729 20.8833 34.8143 20.95 34.8971 21.0333C34.9799 21.1167 35.0296 21.1917 35.0627 21.2417C35.0923 21.2963 35.1057 21.3583 35.1013 21.4203C35.0968 21.4824 35.0748 21.5418 35.0379 21.5917C34.9991 21.6483 34.9443 21.6919 34.8805 21.7167C34.8184 21.7454 34.749 21.7542 34.6818 21.7417C34.6072 21.725 34.5327 21.6917 34.4499 21.6333C34.3257 21.55 34.2511 21.4583 34.2263 21.3583C34.1993 21.2449 34.2171 21.1254 34.276 21.025L34.2843 21.0333ZM33.3236 20.4L33.5307 20.5083C33.505 20.5659 33.4992 20.6304 33.5141 20.6917C33.5353 20.7489 33.5765 20.7963 33.63 20.825C33.6963 20.8667 33.746 20.8833 33.7957 20.875C33.8454 20.875 33.8785 20.85 33.9033 20.8083C33.9159 20.7885 33.9217 20.7651 33.9199 20.7417C33.9199 20.7167 33.9033 20.6833 33.8785 20.6583C33.8361 20.6068 33.7919 20.5568 33.746 20.5083C33.6549 20.4167 33.5969 20.3417 33.5804 20.275C33.5668 20.2321 33.5628 20.1868 33.5685 20.1421C33.5742 20.0975 33.5896 20.0547 33.6135 20.0167C33.645 19.9652 33.6912 19.9246 33.746 19.9C33.8029 19.8736 33.8663 19.8649 33.9282 19.875C34.0048 19.888 34.078 19.9163 34.1435 19.9583C34.2677 20.0417 34.3422 20.125 34.3671 20.2167C34.3822 20.2635 34.387 20.3131 34.3813 20.362C34.3756 20.4109 34.3594 20.458 34.334 20.5L34.1269 20.3833C34.1518 20.325 34.16 20.2833 34.1435 20.2417C34.1269 20.2 34.0938 20.1583 34.0358 20.125C33.99 20.0919 33.9349 20.0744 33.8785 20.075C33.8649 20.0759 33.8517 20.0802 33.8402 20.0875C33.8286 20.0947 33.819 20.1048 33.8122 20.1167C33.7957 20.1417 33.7957 20.1667 33.804 20.2C33.8122 20.2333 33.8619 20.3 33.9447 20.3833C34.0275 20.4667 34.0855 20.5333 34.1104 20.5833C34.1435 20.6356 34.1612 20.6963 34.1612 20.7583C34.1612 20.8204 34.1435 20.8811 34.1104 20.9333C34.0747 20.9915 34.0229 21.0378 33.9613 21.0667C33.8992 21.0954 33.8298 21.1042 33.7625 21.0917C33.6773 21.0772 33.5957 21.046 33.5224 21C33.4153 20.9426 33.3329 20.8477 33.2905 20.7333C33.2585 20.6221 33.2704 20.5027 33.3236 20.4ZM32.1477 20.0833L32.7522 19.0833L33.481 19.5417L33.3816 19.7083L32.8516 19.375L32.7191 19.6L33.216 19.9083L33.1083 20.075L32.6115 19.7667L32.4458 20.0417L33.0007 20.375L32.9013 20.5417L32.156 20.0833H32.1477ZM30.4335 18.6667L30.5246 18.5L30.9718 18.725L30.7647 19.1417C30.6985 19.1583 30.6157 19.1667 30.5163 19.1583C30.4209 19.1477 30.3282 19.1195 30.243 19.075C30.1428 19.0259 30.0571 18.9512 29.9946 18.8583C29.9376 18.7721 29.9087 18.6702 29.9118 18.5667C29.916 18.4589 29.9443 18.3535 29.9946 18.2583C30.0443 18.1581 30.1184 18.0721 30.2099 18.0083C30.2974 17.9474 30.4016 17.9154 30.508 17.9167C30.5908 17.9167 30.6736 17.9417 30.773 18C30.9055 18.0583 30.9883 18.1417 31.0297 18.2333C31.0728 18.3243 31.0816 18.428 31.0546 18.525L30.831 18.4583C30.8447 18.4025 30.8388 18.3437 30.8144 18.2917C30.7896 18.2417 30.7482 18.2083 30.6819 18.175C30.6433 18.1528 30.6005 18.1391 30.5562 18.1348C30.512 18.1305 30.4673 18.1357 30.4252 18.15C30.3424 18.175 30.2679 18.25 30.2099 18.3667C30.1519 18.4833 30.1271 18.5917 30.1519 18.6833C30.1634 18.7268 30.1841 18.7672 30.2127 18.8018C30.2413 18.8363 30.2771 18.8642 30.3175 18.8833C30.359 18.9083 30.4086 18.925 30.4583 18.925C30.5077 18.9325 30.558 18.9325 30.6074 18.925L30.6736 18.7917L30.4335 18.6667ZM22.9638 16.8083L23.1294 15.6417L23.4772 15.7L23.5683 16.5167L23.8913 15.7667L24.2391 15.8167L24.0735 16.9667L23.8499 16.9333L23.9907 16.025L23.6263 16.9L23.4027 16.8667L23.3116 15.925L23.1791 16.8417L22.9638 16.8083ZM21.7961 16.6667L21.9038 15.5L22.7568 15.5833L22.7402 15.7833L22.1191 15.725L22.0943 15.975L22.674 16.0333L22.6491 16.2333L22.0694 16.175L22.0446 16.4917L22.6905 16.55L22.674 16.75L21.7961 16.6667Z" fill="#DDD9D9"/>
<path d="M24.9929 17.0418L25.1834 16.2251L25.7796 16.3668L25.7548 16.5001L25.3159 16.4001L25.2745 16.5834L25.6803 16.6751L25.6471 16.8168L25.2414 16.7168L25.1917 16.9418L25.6471 17.0501L25.614 17.1834L24.9929 17.0418Z" fill="#DDD9D9"/>
</svg>
