<svg width="24" height="24" viewBox="0 0 24 24" fill="none" xmlns="http://www.w3.org/2000/svg">
<path d="M12.0268 5.81249C8.5982 5.81249 5.86606 8.59821 5.86606 11.9732C5.86606 15.4018 8.5982 18.134 12.0268 18.134C15.4017 18.134 18.1875 15.4018 18.1875 11.9732C18.1875 8.59821 15.4017 5.81249 12.0268 5.81249ZM12.0268 15.991C9.83034 15.991 8.00891 14.2232 8.00891 11.9732C8.00891 9.77677 9.77677 8.00892 12.0268 8.00892C14.2232 8.00892 15.9911 9.77677 15.9911 11.9732C15.9911 14.2232 14.2232 15.991 12.0268 15.991ZM19.8482 5.59821C19.8482 4.79463 19.2053 4.15178 18.4018 4.15178C17.5981 4.15178 16.9554 4.79463 16.9554 5.59821C16.9554 6.40178 17.5981 7.04463 18.4018 7.04463C19.2053 7.04463 19.8482 6.40178 19.8482 5.59821ZM23.9196 7.04463C23.8125 5.11606 23.3839 3.40178 21.9911 2.00893C20.5982 0.616071 18.8839 0.1875 16.9554 0.0803565C14.9732 -0.0267855 9.02677 -0.0267855 7.04463 0.0803565C5.11606 0.1875 3.45535 0.616071 2.00892 2.00893C0.616071 3.40178 0.1875 5.11606 0.080361 7.04463C-0.026787 9.02678 -0.026787 14.9733 0.080361 16.9553C0.1875 18.884 0.616071 20.5446 2.00892 21.991C3.45535 23.3839 5.11606 23.8124 7.04463 23.9195C9.02677 24.0268 14.9732 24.0268 16.9554 23.9195C18.8839 23.8124 20.5982 23.3839 21.9911 21.991C23.3839 20.5446 23.8125 18.884 23.9196 16.9553C24.0268 14.9733 24.0268 9.02678 23.9196 7.04463ZM21.3482 19.0446C20.9732 20.1161 20.1161 20.9196 19.0981 21.3481C17.491 21.991 13.7411 21.8304 12.0268 21.8304C10.2589 21.8304 6.50892 21.991 4.95536 21.3481C3.88392 20.9196 3.08036 20.1161 2.65179 19.0446C2.00892 17.4911 2.16964 13.7411 2.16964 11.9732C2.16964 10.2589 2.00892 6.50892 2.65179 4.90179C3.08036 3.88393 3.88392 3.08035 4.95536 2.65178C6.50892 2.00893 10.2589 2.16965 12.0268 2.16965C13.7411 2.16965 17.491 2.00893 19.0981 2.65178C20.1161 3.02679 20.9196 3.88393 21.3482 4.90179C21.9911 6.50892 21.8303 10.2589 21.8303 11.9732C21.8303 13.7411 21.9911 17.4911 21.3482 19.0446Z" fill="#F8F9FC"/>
</svg>
