<svg width="24" height="24" viewBox="0 0 24 24" fill="none" xmlns="http://www.w3.org/2000/svg">
<path d="M22.2857 0H1.66071C0.750001 0 0 0.803572 0 1.76786V22.2857C0 23.25 0.750001 24 1.66071 24H22.2857C23.1965 24 24 23.25 24 22.2857V1.76786C24 0.803572 23.1965 0 22.2857 0ZM7.23214 20.5714H3.69643V9.16072H7.23214V20.5714ZM5.46429 7.55357C4.28571 7.55357 3.37499 6.64286 3.37499 5.51785C3.37499 4.39285 4.28571 3.42857 5.46429 3.42857C6.58929 3.42857 7.50001 4.39285 7.50001 5.51785C7.50001 6.64286 6.58929 7.55357 5.46429 7.55357ZM20.5714 20.5714H16.9821V15.0001C16.9821 13.7143 16.9821 12 15.1607 12C13.2857 12 13.0179 13.4464 13.0179 14.9464V20.5714H9.48215V9.16072H12.8571V10.7143H12.9107C13.3929 9.80357 14.5714 8.83928 16.2857 8.83928C19.875 8.83928 20.5714 11.25 20.5714 14.3036V20.5714Z" fill="#F8F9FC"/>
</svg>
