<svg width="941" height="56" viewBox="0 0 941 56" fill="none" xmlns="http://www.w3.org/2000/svg">
<path d="M633.419 44.9367C644.317 44.9367 653.157 36.092 653.157 25.1871C653.157 14.2823 644.317 5.43756 633.419 5.43756C622.52 5.43756 613.681 14.2823 613.681 25.1871C613.681 36.092 622.52 44.9367 633.419 44.9367Z" fill="#F47920"/>
<path d="M633.459 6.53693C624.352 6.53693 616.968 13.9257 616.968 23.0379C616.968 23.9293 617.037 24.8009 617.176 25.6427C619.304 20.0665 625.134 16.065 631.984 16.065C637.705 16.065 642.714 18.8581 645.446 23.0279H645.496C647.268 23.0279 648.762 23.5925 649.861 24.5532C649.911 24.058 649.93 23.543 649.93 23.0379C649.93 13.9257 642.546 6.54684 633.449 6.54684L633.459 6.53693Z" fill="#FFCA06"/>
<path d="M649.87 24.5532C648.762 23.5826 647.267 23.028 645.505 23.028H645.455C640.605 23.0577 635.497 27.2671 634.042 32.4768C633.26 35.2501 633.676 37.7361 634.963 39.4694C634.468 39.5189 633.973 39.5387 633.458 39.5387C625.242 39.5387 618.432 33.5267 617.175 25.6526C616.611 27.1185 616.304 28.6933 616.304 30.3375C616.304 34.3785 618.145 38.0135 621.114 40.6084C622.946 42.0644 625.034 43.2133 627.311 43.9562C629.241 44.5801 631.29 44.9268 633.429 44.9268C639.348 44.9268 644.644 42.3219 648.267 38.1917C649.514 36.7655 650.563 35.1709 651.355 33.4277C651.474 33.1107 651.583 32.7938 651.662 32.4669C652.592 29.1489 651.81 26.2271 649.87 24.5433V24.5532Z" fill="#ED1C2C"/>
<path d="M756.994 23.6222V39.8854C756.994 40.0538 756.865 40.1826 756.697 40.1826H752.896C752.728 40.1826 752.599 40.0538 752.599 39.8854V25.0485C752.599 20.3537 750.025 17.5904 745.601 17.5904C741.176 17.5904 738.097 20.5122 738.097 25.1574V39.8854C738.097 40.0538 737.969 40.1826 737.8 40.1826H733.999C733.831 40.1826 733.702 40.0538 733.702 39.8854V25.0485C733.702 20.3537 731.129 17.5904 726.704 17.5904C722.606 17.5904 719.171 20.4032 719.171 25.1574V39.8854C719.171 40.0538 719.042 40.1826 718.874 40.1826H715.103C714.934 40.1826 714.806 40.0538 714.806 39.8854V14.2625C714.806 14.0941 714.934 13.9653 715.103 13.9653H718.844C719.013 13.9653 719.141 14.0941 719.141 14.2625V16.4415C719.141 16.7188 719.478 16.8475 719.656 16.6396C721.745 14.2625 724.764 13.4206 727.476 13.4206C731.584 13.4206 734.87 15.1737 736.632 18.0955C736.751 18.2936 737.028 18.2936 737.147 18.0955C739.295 14.5794 743.057 13.4206 746.383 13.4206C752.668 13.4206 756.984 17.5012 756.984 23.6123L756.994 23.6222Z" fill="white"/>
<path d="M787.789 26.7124C787.789 34.4082 782.186 39.9845 775.059 39.9845C771.367 39.9845 768.556 38.677 766.586 36.607C766.408 36.4188 766.081 36.5476 766.081 36.815V49.8691C766.081 50.0375 765.952 50.1662 765.784 50.1662H762.013C761.844 50.1662 761.716 50.0375 761.716 49.8691V14.2625C761.716 14.0941 761.844 13.9653 762.013 13.9653H765.784C765.952 13.9653 766.081 14.0941 766.081 14.2625V16.59C766.081 16.8575 766.408 16.9961 766.586 16.798C768.556 14.7379 771.367 13.4206 775.059 13.4206C782.186 13.4206 787.789 18.9968 787.789 26.6926V26.7124ZM765.804 26.7124C765.804 31.942 769.397 35.884 774.545 35.884C779.692 35.884 783.285 31.7835 783.285 26.7124C783.285 21.6413 779.751 17.5607 774.545 17.5607C769.338 17.5607 765.804 21.5026 765.804 26.7124Z" fill="white"/>
<path d="M837.312 19.3533C837.233 19.5019 837.045 19.5514 836.896 19.4623C835.214 18.4124 832.135 17.2734 828.958 17.2734C825.473 17.2734 823.216 18.7492 823.216 21.0569C823.216 23.0973 825.067 24.0283 828.146 24.4047L831.096 24.781C836.51 25.504 839.708 27.7821 839.708 31.9915C839.708 36.8447 835.362 39.9844 828.423 39.9844C825.355 39.9844 821.237 39.2614 817.93 36.8843C817.802 36.7952 817.772 36.607 817.851 36.4783L819.564 33.7248C819.653 33.5762 819.851 33.5465 819.999 33.6455C821.87 35.0322 824.384 36.1613 828.453 36.1613C832.521 36.1613 835.204 34.7944 835.204 32.2787C835.204 30.4067 833.541 29.2182 830.086 28.7924L827.136 28.4457C821.425 27.7523 818.663 25.1772 818.663 21.3144C818.663 16.4315 822.712 13.48 828.908 13.48C832.808 13.48 836.372 14.4902 838.837 16.0849C838.965 16.174 839.015 16.3424 838.936 16.4811L837.312 19.3633V19.3533Z" fill="white"/>
<path d="M859.664 19.3533C859.585 19.5019 859.397 19.5514 859.248 19.4623C857.565 18.4124 854.487 17.2734 851.309 17.2734C847.825 17.2734 845.568 18.7492 845.568 21.0569C845.568 23.0973 847.419 24.0283 850.498 24.4047L853.447 24.781C858.862 25.504 862.049 27.7821 862.049 31.9915C862.049 36.8447 857.704 39.9844 850.765 39.9844C847.696 39.9844 843.578 39.2614 840.272 36.8843C840.144 36.7952 840.114 36.607 840.193 36.4783L841.906 33.7248C841.995 33.5762 842.193 33.5465 842.331 33.6455C844.202 35.0322 846.716 36.1613 850.785 36.1613C854.853 36.1613 857.536 34.7944 857.536 32.2787C857.536 30.4067 855.873 29.2182 852.418 28.7924L849.468 28.4457C843.757 27.7523 840.995 25.1772 840.995 21.3144C840.995 16.4315 845.043 13.48 851.24 13.48C855.14 13.48 858.704 14.4902 861.168 16.0849C861.297 16.174 861.347 16.3424 861.267 16.4811L859.644 19.3633L859.664 19.3533Z" fill="white"/>
<path d="M679.705 33.2692C679.586 33.1503 679.408 33.1503 679.289 33.2692C675.527 36.8249 670.202 36.7259 666.678 33.19C663.055 29.5649 663.045 24.1273 666.807 20.3438C670.509 16.6395 675.795 16.6098 679.408 20.0269C679.526 20.1358 679.705 20.1457 679.823 20.0269L682.318 17.531C682.437 17.4121 682.437 17.214 682.318 17.0952C676.864 11.8458 668.915 11.9052 663.639 17.1744C658.294 22.5228 658.313 30.6247 663.768 36.0821C669.153 41.4701 677.101 41.5791 682.456 36.4584C682.575 36.3396 682.575 36.1415 682.456 36.0226L679.695 33.2593L679.705 33.2692Z" fill="white"/>
<path d="M689.01 26.7025C689.168 26.7025 689.297 26.5737 689.307 26.4054C689.455 21.2253 693.286 17.5408 698.275 17.5408C703.264 17.5408 707.253 21.3739 707.253 26.7124C707.253 32.0509 703.541 35.7156 698.562 35.8543C698.404 35.8543 698.265 35.983 698.265 36.1514V39.6873C698.265 39.8557 698.404 39.9944 698.572 39.9944C706.135 39.8458 711.718 34.1804 711.718 26.7223C711.718 19.2642 705.976 13.4503 698.265 13.4503C690.554 13.4503 684.942 18.9968 684.783 26.4054C684.783 26.5737 684.922 26.7124 685.09 26.7124H689L689.01 26.7025Z" fill="white"/>
<path d="M814.931 13.9752H811.159C810.991 13.9752 810.862 14.104 810.862 14.2724V16.5504C808.546 14.4704 805.458 13.2423 801.973 13.2423C794.411 13.2423 788.699 18.9869 788.699 26.7025C788.699 34.4181 794.242 40.034 801.647 40.1925C801.815 40.1925 801.963 40.0537 801.963 39.8854V35.9731C801.963 35.8147 801.835 35.6859 801.666 35.676C796.489 35.5274 792.807 31.6944 792.807 26.6926C792.807 21.6909 796.638 17.7092 801.973 17.7092C806.517 17.7092 810.872 20.8886 810.872 24.5235V39.8854C810.872 40.0537 811.001 40.1826 811.169 40.1826H814.941C815.109 40.1826 815.238 40.0537 815.238 39.8854V14.2624C815.238 14.104 815.099 13.9653 814.931 13.9653V13.9752Z" fill="white"/>
<path d="M701.105 29.446L702.382 24.682C702.659 23.6618 701.719 22.7308 700.699 22.9982L695.938 24.2759C694.918 24.5533 694.572 25.821 695.324 26.5738L698.809 30.0601C699.551 30.803 700.828 30.4662 701.105 29.446Z" fill="#FFCA06"/>
<path d="M868.542 40.2419C870.313 40.2419 871.749 38.8052 871.749 37.0329C871.749 35.2606 870.313 33.8238 868.542 33.8238C866.771 33.8238 865.335 35.2606 865.335 37.0329C865.335 38.8052 866.771 40.2419 868.542 40.2419Z" fill="white"/>
<path d="M940.09 30.7534C936.992 30.7534 935.567 29.1687 935.567 26.0686V6.99255H926.074V21.156C923.916 16.5207 919.214 13.3116 913.77 13.3116C908.326 13.3116 903.624 16.5207 901.466 21.156V13.5988H892.092V26.9303C892.092 29.3371 890.825 30.9614 888.706 30.9614C886.588 30.9614 885.321 29.3272 885.321 26.9303V13.5988H875.828V27.0492C875.828 35.2798 880.876 40.4598 888.696 40.4598C894.972 40.4598 899.456 36.9735 900.931 31.3279C902.762 36.6466 907.811 40.4598 913.75 40.4598C919.689 40.4598 924.599 36.7456 926.5 31.5359C927.905 37.5776 932.468 40.2519 938.596 40.2519H941.001V30.7534H940.071H940.09ZM913.78 30.9515C911.543 30.9515 909.711 29.1192 909.711 26.8808C909.711 24.6424 911.543 22.81 913.78 22.81C916.017 22.81 917.848 24.6424 917.848 26.8808C917.848 29.1192 916.017 30.9515 913.78 30.9515Z" fill="white"/>
<path d="M560.663 34.2795C559.504 34.2795 558.485 33.9922 557.614 33.4178C556.743 32.8433 556.159 32.0708 555.871 31.0902H556.168V34.0022H552.793V13.9653H556.198V23.0577H555.871C556.178 22.1167 556.772 21.364 557.643 20.8094C558.514 20.2547 559.524 19.9774 560.663 19.9774C561.88 19.9774 562.939 20.2646 563.85 20.849C564.761 21.4333 565.463 22.2554 565.968 23.3152C566.473 24.375 566.73 25.6526 566.73 27.1383C566.73 28.624 566.473 29.9017 565.968 30.9615C565.463 32.0213 564.751 32.8433 563.83 33.4079C562.919 33.9823 561.86 34.2695 560.663 34.2695V34.2795ZM559.712 31.6647C560.781 31.6647 561.652 31.2883 562.306 30.5454C562.969 29.8026 563.295 28.6636 563.295 27.1383C563.295 25.613 562.969 24.474 562.306 23.7213C561.642 22.9686 560.781 22.5922 559.712 22.5922C558.643 22.5922 557.782 22.9685 557.129 23.7114C556.475 24.4542 556.149 25.5932 556.149 27.1086C556.149 28.624 556.475 29.7729 557.129 30.5257C557.782 31.2784 558.643 31.6547 559.712 31.6547V31.6647Z" fill="white"/>
<path d="M574.015 40.1825L573.223 37.4885C574.074 37.3102 574.787 37.1022 575.371 36.8645C575.955 36.6268 576.43 36.3198 576.816 35.9434C577.202 35.567 577.519 35.0718 577.767 34.4775L578.45 32.873L578.371 34.2101L572.382 20.2745H576.005L580.301 31.0011H579.509L583.835 20.2745H587.26L581.004 34.7846C580.588 35.7651 580.132 36.5773 579.647 37.2211C579.153 37.8649 578.628 38.3799 578.064 38.7761C577.499 39.1623 576.886 39.4694 576.213 39.6873C575.54 39.9052 574.807 40.0736 574.005 40.2023L574.015 40.1825Z" fill="white"/>
<path d="M27.9045 0C39.9512 0 50.0578 7.38872 53.6312 18.66H45.0094C41.9012 11.9745 36.0709 7.46797 27.9144 7.46797C16.7189 7.46797 8.17634 16.4117 8.17634 28C8.17634 39.5882 16.7288 48.532 27.9144 48.532C36.0709 48.532 41.9012 44.0255 45.0094 37.34H53.6312C50.0578 48.6113 39.9512 56 27.9045 56C12.1259 56 0 43.7877 0 28.0099C0 12.232 12.1259 0.0197679 27.9045 0.0197679V0Z" fill="white"/>
<path d="M108.649 37.7163V55.2077H100.878V38.5681C100.878 34.0616 98.3144 31.7241 93.3452 31.7241H72.5184V55.2077H64.9062V0.772522H107.956V3.11003C107.956 12.2123 105.471 19.908 98.7103 25.2762C105.164 26.2865 108.658 31.734 108.658 37.7163H108.649ZM99.4032 7.93351H72.5184V24.4938H81.2193C93.1076 24.4938 98.6311 16.5603 99.4032 7.93351Z" fill="white"/>
<path d="M163.052 0.78241V15.7877C163.052 24.3452 155.519 32.4273 144.788 32.665V55.2175H137.018V32.665C126.298 32.4273 118.755 24.3452 118.755 15.7877V0.78241H126.525V15.7877C126.525 20.9975 131.346 25.4248 137.483 25.4248H144.323C150.46 25.4248 155.281 20.9975 155.281 15.7877V0.78241H163.052Z" fill="white"/>
<path d="M217.445 0.78241V3.11986C217.445 22.4039 202.755 34.6162 183.255 34.6162V55.2175H175.484V0.78241H217.455H217.445ZM209.288 7.93349H183.255V27.5345C197.321 27.5345 207.19 19.8387 209.288 7.93349Z" fill="white"/>
<path d="M282.342 27.9999C282.342 12.2122 294.695 0.0098877 310.711 0.0098877C326.728 0.0098877 339.081 12.2221 339.081 27.9999C339.081 43.7778 326.728 55.9901 310.711 55.9901C294.695 55.9901 282.342 43.7778 282.342 27.9999ZM330.915 27.9999C330.915 16.4117 322.135 7.46794 310.711 7.46794C299.288 7.46794 290.508 16.4117 290.508 27.9999C290.508 39.5882 299.288 48.532 310.711 48.532C322.135 48.532 330.915 39.5882 330.915 27.9999Z" fill="white"/>
<path d="M393.394 43.0845V55.2175H349.642L349.562 0.782407H357.105V7.62645C360.451 2.65439 365.965 0.0098877 373.112 0.0098877C383.446 0.0098877 391.533 5.99217 391.533 15.3321C391.533 20.6211 388.811 25.4446 384 28.0891C390.058 30.4167 393.404 35.9434 393.404 43.0944L393.394 43.0845ZM357.333 24.3452V24.9692H372.953C380.496 24.9692 383.525 21.3936 383.525 15.8669C383.525 10.3402 379.565 6.61617 372.409 6.61617C363.243 6.61617 357.333 12.9947 357.333 24.3452ZM385.624 48.0565V43.9363C385.624 35.4581 381.268 31.724 372.023 31.724H357.333V48.0565H385.624Z" fill="white"/>
<path d="M413.211 0.78241V55.2175H405.44V0.78241H413.211Z" fill="white"/>
<path d="M472.663 55.2077H464.892C464.892 41.3711 457.042 31.417 442.274 31.417H436.364V55.2077H428.752V0.772522H436.364V24.5731H442.274C455.251 24.5731 463.803 16.3325 463.803 0.772522H471.574C471.574 12.8263 466.525 23.7906 456.191 27.6038C467.149 31.4963 472.663 42.6884 472.663 55.2077Z" fill="white"/>
<path d="M526.442 38.1818C524.502 49.5323 515.019 55.9901 502.507 55.9901C489.064 55.9901 480.433 49.8493 480.433 39.509C480.433 34.1408 482.996 29.7134 488.985 27.1482C484.085 24.5037 481.759 20.2249 481.68 15.4015C481.521 6.15065 490.153 0.0098877 503.21 0.0098877C513.781 0.0098877 523.799 5.76436 525.67 17.1149H517.582C516.266 10.3501 509.97 7.46794 503.13 7.46794C494.657 7.46794 489.846 10.6572 489.846 15.9462C489.846 20.3042 493.341 24.4244 500.804 24.4244H509.505V31.4963H500.804C491.094 31.4963 488.451 35.3887 488.451 39.4298C488.451 44.8772 493.35 48.532 502.517 48.532C510.525 48.532 515.88 45.422 518.523 38.1917H526.452L526.442 38.1818Z" fill="white"/>
<path d="M275.342 19.3732H267.879V8.17125H253.575V55.1384H245.804V8.17125H231.501V19.3732H224.037V0.713135H275.332V19.3732H275.342Z" fill="white"/>
<path d="M267.868 32.9225H260.306V44.0354H267.868V32.9225Z" fill="white"/>
<path d="M239.072 44.1741H231.51V55.2869H239.072V44.1741Z" fill="white"/>
</svg>
