<svg width="106" height="24" viewBox="0 0 106 24" fill="none" xmlns="http://www.w3.org/2000/svg">
<path d="M44.0211 22.9451C46.2155 22.9451 47.9953 21.1609 47.9953 18.9611C47.9953 16.7613 46.2155 14.9771 44.0211 14.9771C41.8267 14.9771 40.0469 16.7613 40.0469 18.9611C40.0469 21.1609 41.8267 22.9451 44.0211 22.9451Z" fill="#F47920"/>
<path d="M44.029 15.2009C42.1953 15.2009 40.7085 16.6914 40.7085 18.5296C40.7085 18.7094 40.7224 18.8852 40.7503 19.0551C41.1789 17.9302 42.3528 17.123 43.732 17.123C44.884 17.123 45.8925 17.6864 46.4426 18.5276H46.4526C46.8093 18.5276 47.1103 18.6415 47.3315 18.8353C47.3415 18.7354 47.3455 18.6315 47.3455 18.5296C47.3455 16.6914 45.8586 15.2029 44.027 15.2029L44.029 15.2009Z" fill="#FFCA06"/>
<path d="M47.3357 18.8353C47.1125 18.6395 46.8115 18.5276 46.4567 18.5276H46.4468C45.4702 18.5336 44.4417 19.3827 44.1488 20.4337C43.9913 20.9931 44.075 21.4946 44.3341 21.8443C44.2345 21.8543 44.1348 21.8583 44.0312 21.8583C42.3769 21.8583 41.0057 20.6455 40.7525 19.0571C40.6389 19.3528 40.5771 19.6704 40.5771 20.0021C40.5771 20.8173 40.9479 21.5506 41.5458 22.074C41.9145 22.3677 42.335 22.5995 42.7935 22.7494C43.1821 22.8752 43.5947 22.9452 44.0252 22.9452C45.217 22.9452 46.2834 22.4197 47.0128 21.5865C47.2639 21.2988 47.4752 20.9771 47.6347 20.6255C47.6586 20.5616 47.6805 20.4976 47.6964 20.4317C47.8838 19.7624 47.7263 19.1729 47.3357 18.8333V18.8353Z" fill="#ED1C2C"/>
<path d="M68.9027 18.6473V21.928C68.9027 21.962 68.8768 21.988 68.8429 21.988H68.0776C68.0437 21.988 68.0178 21.962 68.0178 21.928V18.935C68.0178 17.988 67.4996 17.4305 66.6087 17.4305C65.7178 17.4305 65.0979 18.0199 65.0979 18.957V21.928C65.0979 21.962 65.072 21.988 65.0381 21.988H64.2728C64.2389 21.988 64.213 21.962 64.213 21.928V18.935C64.213 17.988 63.6948 17.4305 62.8039 17.4305C61.9788 17.4305 61.2872 17.9979 61.2872 18.957V21.928C61.2872 21.962 61.2613 21.988 61.2274 21.988H60.468C60.4341 21.988 60.4082 21.962 60.4082 21.928V16.7592C60.4082 16.7252 60.4341 16.6992 60.468 16.6992H61.2214C61.2553 16.6992 61.2812 16.7252 61.2812 16.7592V17.1987C61.2812 17.2547 61.3489 17.2807 61.3848 17.2387C61.8054 16.7592 62.4132 16.5894 62.9593 16.5894C63.7865 16.5894 64.4482 16.943 64.8029 17.5324C64.8269 17.5724 64.8827 17.5724 64.9066 17.5324C65.3391 16.8231 66.0965 16.5894 66.7661 16.5894C68.0317 16.5894 68.9007 17.4125 68.9007 18.6453L68.9027 18.6473Z" fill="white"/>
<path d="M75.1028 19.2687C75.1028 20.8212 73.9747 21.946 72.5397 21.946C71.7963 21.946 71.2302 21.6823 70.8336 21.2647C70.7977 21.2268 70.732 21.2527 70.732 21.3067V23.94C70.732 23.974 70.7061 24 70.6722 24H69.9128C69.8789 24 69.853 23.974 69.853 23.94V16.7572C69.853 16.7233 69.8789 16.6973 69.9128 16.6973H70.6722C70.7061 16.6973 70.732 16.7233 70.732 16.7572V17.2268C70.732 17.2807 70.7977 17.3087 70.8336 17.2687C71.2302 16.8531 71.7963 16.5874 72.5397 16.5874C73.9747 16.5874 75.1028 17.7123 75.1028 19.2647V19.2687ZM70.6761 19.2687C70.6761 20.3237 71.3997 21.1189 72.4361 21.1189C73.4725 21.1189 74.1959 20.2917 74.1959 19.2687C74.1959 18.2457 73.4844 17.4226 72.4361 17.4226C71.3877 17.4226 70.6761 18.2178 70.6761 19.2687Z" fill="white"/>
<path d="M85.0747 17.7861C85.0587 17.8161 85.0208 17.8261 84.9909 17.8081C84.6521 17.5963 84.0323 17.3666 83.3925 17.3666C82.6909 17.3666 82.2365 17.6643 82.2365 18.1298C82.2365 18.5414 82.6092 18.7292 83.2291 18.8051L83.823 18.881C84.9132 19.0269 85.557 19.4864 85.557 20.3356C85.557 21.3146 84.682 21.948 83.2849 21.948C82.667 21.948 81.8379 21.8021 81.1722 21.3226C81.1463 21.3046 81.1403 21.2667 81.1563 21.2407L81.5011 20.6852C81.519 20.6553 81.5588 20.6493 81.5887 20.6693C81.9654 20.949 82.4717 21.1767 83.2908 21.1767C84.11 21.1767 84.6501 20.901 84.6501 20.3935C84.6501 20.0159 84.3153 19.7761 83.6197 19.6902L83.0258 19.6203C81.8758 19.4804 81.3197 18.961 81.3197 18.1817C81.3197 17.1967 82.1348 16.6013 83.3825 16.6013C84.1678 16.6013 84.8853 16.8051 85.3816 17.1268C85.4075 17.1448 85.4175 17.1787 85.4015 17.2067L85.0747 17.7881V17.7861Z" fill="white"/>
<path d="M89.5747 17.7861C89.5588 17.8161 89.5209 17.8261 89.491 17.8081C89.1522 17.5963 88.5323 17.3666 87.8925 17.3666C87.191 17.3666 86.7366 17.6643 86.7366 18.1298C86.7366 18.5414 87.1093 18.7292 87.7291 18.8051L88.323 18.881C89.4133 19.0269 90.055 19.4864 90.055 20.3356C90.055 21.3146 89.1801 21.948 87.7829 21.948C87.1651 21.948 86.3359 21.8021 85.6703 21.3226C85.6443 21.3046 85.6384 21.2667 85.6543 21.2407L85.9991 20.6852C86.017 20.6553 86.0569 20.6493 86.0848 20.6693C86.4615 20.949 86.9678 21.1767 87.7869 21.1767C88.6061 21.1767 89.1462 20.901 89.1462 20.3935C89.1462 20.0159 88.8113 19.7761 88.1157 19.6902L87.5218 19.6203C86.3718 19.4804 85.8157 18.961 85.8157 18.1817C85.8157 17.1967 86.6309 16.6013 87.8786 16.6013C88.6639 16.6013 89.3814 16.8051 89.8777 17.1268C89.9036 17.1448 89.9135 17.1787 89.8976 17.2067L89.5707 17.7881L89.5747 17.7861Z" fill="white"/>
<path d="M53.3405 20.5935C53.3166 20.5695 53.2807 20.5695 53.2568 20.5935C52.4994 21.3107 51.4271 21.2908 50.7176 20.5775C49.9881 19.8462 49.9861 18.7493 50.7435 17.9861C51.4889 17.2388 52.5532 17.2328 53.2807 17.9221C53.3046 17.9441 53.3405 17.9461 53.3644 17.9221L53.8667 17.4186C53.8906 17.3947 53.8906 17.3547 53.8667 17.3307C52.7685 16.2718 51.168 16.2838 50.1057 17.3467C49.0295 18.4256 49.0334 20.06 50.1316 21.1609C51.2159 22.2478 52.8163 22.2698 53.8946 21.2368C53.9185 21.2128 53.9185 21.1729 53.8946 21.1489L53.3385 20.5915L53.3405 20.5935Z" fill="white"/>
<path d="M55.2143 19.2668C55.2462 19.2668 55.2721 19.2409 55.2741 19.2069C55.304 18.1619 56.0753 17.4187 57.0798 17.4187C58.0844 17.4187 58.8876 18.1919 58.8876 19.2688C58.8876 20.3458 58.1402 21.085 57.1376 21.113C57.1058 21.113 57.0779 21.139 57.0779 21.1729V21.8862C57.0779 21.9202 57.1058 21.9482 57.1396 21.9482C58.6624 21.9182 59.7864 20.7753 59.7864 19.2708C59.7864 17.7663 58.6305 16.5935 57.0779 16.5935C55.5252 16.5935 54.3952 17.7124 54.3633 19.2069C54.3633 19.2409 54.3912 19.2688 54.4251 19.2688H55.2123L55.2143 19.2668Z" fill="white"/>
<path d="M80.5683 16.6994H79.8089C79.7751 16.6994 79.7491 16.7253 79.7491 16.7593V17.2189C79.2828 16.7993 78.6609 16.5515 77.9594 16.5515C76.4366 16.5515 75.2866 17.7104 75.2866 19.2668C75.2866 20.8232 76.4028 21.9561 77.8936 21.9881C77.9275 21.9881 77.9574 21.9601 77.9574 21.9261V21.1369C77.9574 21.105 77.9315 21.079 77.8976 21.077C76.8552 21.047 76.1138 20.2738 76.1138 19.2648C76.1138 18.2558 76.8851 17.4526 77.9594 17.4526C78.8742 17.4526 79.7511 18.094 79.7511 18.8272V21.9261C79.7511 21.9601 79.7771 21.9861 79.8109 21.9861H80.5703C80.6042 21.9861 80.6301 21.9601 80.6301 21.9261V16.7573C80.6301 16.7253 80.6022 16.6974 80.5683 16.6974V16.6994Z" fill="white"/>
<path d="M57.6501 19.8223L57.9072 18.8612C57.9631 18.6554 57.7737 18.4676 57.5684 18.5216L56.6095 18.7793C56.4042 18.8353 56.3344 19.091 56.4859 19.2428L57.1876 19.9461C57.3371 20.096 57.5943 20.0281 57.6501 19.8223Z" fill="#FFCA06"/>
<path d="M91.3631 21.9981C91.7198 21.9981 92.009 21.7082 92.009 21.3507C92.009 20.9932 91.7198 20.7034 91.3631 20.7034C91.0064 20.7034 90.7173 20.9932 90.7173 21.3507C90.7173 21.7082 91.0064 21.9981 91.3631 21.9981Z" fill="white"/>
<path d="M105.769 20.084C105.145 20.084 104.858 19.7643 104.858 19.1389V15.2908H102.946V18.1479C102.512 17.2129 101.565 16.5655 100.469 16.5655C99.3729 16.5655 98.4262 17.2129 97.9917 18.1479V16.6234H96.1042V19.3128C96.1042 19.7983 95.8491 20.1259 95.4226 20.1259C94.9961 20.1259 94.741 19.7963 94.741 19.3128V16.6234H92.8296V19.3367C92.8296 20.9971 93.8461 22.042 95.4206 22.042C96.6842 22.042 97.5871 21.3387 97.884 20.1999C98.2528 21.2728 99.2692 22.042 100.465 22.042C101.661 22.042 102.65 21.2928 103.032 20.2418C103.315 21.4606 104.234 22.0001 105.468 22.0001H105.952V20.084H105.765H105.769ZM100.471 20.1239C100.021 20.1239 99.6519 19.7543 99.6519 19.3028C99.6519 18.8512 100.021 18.4816 100.471 18.4816C100.922 18.4816 101.29 18.8512 101.29 19.3028C101.29 19.7543 100.922 20.1239 100.471 20.1239Z" fill="white"/>
<path d="M29.3721 20.7952C29.1389 20.7952 28.9336 20.7372 28.7582 20.6213C28.5828 20.5055 28.4652 20.3496 28.4074 20.1518H28.4672V20.7392H27.7876V16.6973H28.4732V18.5314H28.4074C28.4692 18.3416 28.5888 18.1898 28.7642 18.0779C28.9396 17.966 29.1429 17.9101 29.3721 17.9101C29.6172 17.9101 29.8305 17.968 30.0139 18.0859C30.1972 18.2038 30.3387 18.3696 30.4404 18.5834C30.542 18.7972 30.5939 19.0549 30.5939 19.3546C30.5939 19.6543 30.542 19.9121 30.4404 20.1258C30.3387 20.3396 30.1952 20.5055 30.0099 20.6193C29.8265 20.7352 29.6133 20.7932 29.3721 20.7932V20.7952ZM29.1808 20.2677C29.396 20.2677 29.5714 20.1918 29.7029 20.0419C29.8365 19.8921 29.9023 19.6623 29.9023 19.3546C29.9023 19.0469 29.8365 18.8171 29.7029 18.6653C29.5694 18.5135 29.396 18.4375 29.1808 18.4375C28.9655 18.4375 28.7921 18.5134 28.6606 18.6633C28.529 18.8131 28.4633 19.0429 28.4633 19.3486C28.4633 19.6543 28.529 19.8861 28.6606 20.0379C28.7921 20.1898 28.9655 20.2657 29.1808 20.2657V20.2677Z" fill="white"/>
<path d="M32.0608 21.986L31.9014 21.4425C32.0728 21.4065 32.2163 21.3646 32.3338 21.3166C32.4514 21.2687 32.5471 21.2067 32.6248 21.1308C32.7026 21.0549 32.7663 20.955 32.8162 20.8351L32.9537 20.5114L32.9378 20.7812L31.7319 17.97H32.4614L33.3264 20.1338H33.167L34.0379 17.97H34.7275L33.4679 20.897C33.3842 21.0948 33.2925 21.2587 33.1949 21.3886C33.0952 21.5184 32.9896 21.6223 32.876 21.7022C32.7624 21.7802 32.6388 21.8421 32.5033 21.8861C32.3677 21.93 32.2202 21.964 32.0588 21.99L32.0608 21.986Z" fill="white"/>
<path d="M5.6185 0C8.04408 0 10.079 1.49051 10.7985 3.76424H9.06254C8.43671 2.41558 7.26279 1.5065 5.62049 1.5065C3.36632 1.5065 1.64629 3.31069 1.64629 5.64836C1.64629 7.98602 3.36831 9.79021 5.62049 9.79021C7.26279 9.79021 8.43671 8.88112 9.06254 7.53247H10.7985C10.079 9.8062 8.04408 11.2967 5.6185 11.2967C2.44153 11.2967 0 8.83317 0 5.65035C0 2.46753 2.44153 0.00399991 5.6185 0.00399991V0Z" fill="white"/>
<path d="M21.8782 7.60831V11.1368H20.3137V7.78014C20.3137 6.87105 19.7975 6.39952 18.7969 6.39952H14.6035V11.1368H13.0708V0.155762H21.7387V0.627293C21.7387 2.46346 21.2385 4.01591 19.8772 5.09882C21.1767 5.30262 21.8802 6.40152 21.8802 7.60831H21.8782ZM20.0167 1.60032H14.6035V4.94098H16.3554C18.7491 4.94098 19.8612 3.34058 20.0167 1.60032Z" fill="white"/>
<path d="M32.8302 0.157959V3.18493C32.8302 4.9112 31.3134 6.54158 29.1529 6.58953V11.139H27.5884V6.58953C25.4299 6.54158 23.9111 4.9112 23.9111 3.18493V0.157959H25.4757V3.18493C25.4757 4.23588 26.4463 5.12899 27.682 5.12899H29.0593C30.295 5.12899 31.2656 4.23588 31.2656 3.18493V0.157959H32.8302Z" fill="white"/>
<path d="M43.7841 0.157959V0.629491C43.7841 4.5196 40.8264 6.98313 36.9 6.98313V11.139H35.3354V0.157959H43.7861H43.7841ZM42.1418 1.60052H36.9V5.55456C39.7322 5.55456 41.7193 4.00212 42.1418 1.60052Z" fill="white"/>
<path d="M56.8486 5.64831C56.8486 2.46349 59.336 0.00195312 62.5608 0.00195312C65.7856 0.00195312 68.273 2.46549 68.273 5.64831C68.273 8.83113 65.7856 11.2947 62.5608 11.2947C59.336 11.2947 56.8486 8.83113 56.8486 5.64831ZM66.6287 5.64831C66.6287 3.31065 64.8608 1.50645 62.5608 1.50645C60.2608 1.50645 58.4929 3.31065 58.4929 5.64831C58.4929 7.98597 60.2608 9.79016 62.5608 9.79016C64.8608 9.79016 66.6287 7.98597 66.6287 5.64831Z" fill="white"/>
<path d="M79.2092 8.69126V11.1388H70.3997L70.3838 0.157797H71.9025V1.53842C72.5762 0.53542 73.6863 0.00195312 75.1253 0.00195312C77.2061 0.00195312 78.8345 1.20875 78.8345 3.09286C78.8345 4.1598 78.2864 5.13282 77.3177 5.66629C78.5375 6.13582 79.2112 7.2507 79.2112 8.69326L79.2092 8.69126ZM71.9484 4.91105V5.03692H75.0934C76.6122 5.03692 77.2221 4.31564 77.2221 3.20076C77.2221 2.08587 76.4248 1.33462 74.9838 1.33462C73.1382 1.33462 71.9484 2.62134 71.9484 4.91105ZM77.6446 9.69426V8.86309C77.6446 7.1528 76.7676 6.39955 74.9061 6.39955H71.9484V9.69426H77.6446Z" fill="white"/>
<path d="M83.1996 0.157959V11.139H81.6348V0.157959H83.1996Z" fill="white"/>
<path d="M95.1694 11.1368H93.6049C93.6049 8.34558 92.0244 6.33758 89.0507 6.33758H87.8608V11.1368H86.3281V0.155762H87.8608V4.95696H89.0507C91.6636 4.95696 93.3856 3.29462 93.3856 0.155762H94.9502C94.9502 2.58733 93.9337 4.79912 91.8529 5.56836C94.0593 6.35357 95.1694 8.61131 95.1694 11.1368Z" fill="white"/>
<path d="M105.998 7.70225C105.608 9.99197 103.698 11.2947 101.179 11.2947C98.4723 11.2947 96.7344 10.0559 96.7344 7.96999C96.7344 6.88707 97.2506 5.99396 98.4564 5.47648C97.4698 4.94301 97.0014 4.07988 96.9855 3.10685C96.9536 1.24072 98.6916 0.00195312 101.32 0.00195312C103.449 0.00195312 105.466 1.16279 105.843 3.4525H104.214C103.949 2.08787 102.682 1.50645 101.304 1.50645C99.5984 1.50645 98.6298 2.1498 98.6298 3.21674C98.6298 4.09586 99.3333 4.92703 100.836 4.92703H102.588V6.3536H100.836C98.8809 6.3536 98.3488 7.13881 98.3488 7.954C98.3488 9.0529 99.3353 9.79016 101.181 9.79016C102.793 9.79016 103.872 9.16279 104.404 7.70425H106L105.998 7.70225Z" fill="white"/>
<path d="M55.4415 3.90803H53.9387V1.64829H51.0587V11.1228H49.4941V1.64829H46.6141V3.90803H45.1113V0.143799H55.4395V3.90803H55.4415Z" fill="white"/>
<path d="M53.9351 6.64136H52.4121V8.88312H53.9351V6.64136Z" fill="white"/>
<path d="M48.1392 8.91113H46.6162V11.1529H48.1392V8.91113Z" fill="white"/>
</svg>
