<svg width="403" height="24" viewBox="0 0 403 24" fill="none" xmlns="http://www.w3.org/2000/svg">
<path d="M271.273 19.2588C275.94 19.2588 279.726 15.4682 279.726 10.7947C279.726 6.12116 275.94 2.33057 271.273 2.33057C266.605 2.33057 262.819 6.12116 262.819 10.7947C262.819 15.4682 266.605 19.2588 271.273 19.2588Z" fill="#F47920"/>
<path d="M271.29 2.80176C267.39 2.80176 264.228 5.96838 264.228 9.87358C264.228 10.2556 264.257 10.6292 264.317 10.99C265.228 8.60015 267.725 6.88524 270.659 6.88524C273.109 6.88524 275.254 8.08228 276.424 9.86933H276.445C277.204 9.86933 277.844 10.1113 278.315 10.523C278.336 10.3108 278.344 10.0901 278.344 9.87358C278.344 5.96838 275.182 2.80601 271.286 2.80601L271.29 2.80176Z" fill="#FFCA06"/>
<path d="M278.318 10.5228C277.843 10.1068 277.203 9.86914 276.448 9.86914H276.427C274.35 9.88187 272.162 11.6859 271.539 13.9187C271.204 15.1072 271.382 16.1726 271.933 16.9155C271.721 16.9367 271.51 16.9452 271.289 16.9452C267.77 16.9452 264.854 14.3686 264.315 10.994C264.074 11.6222 263.942 12.2972 263.942 13.0018C263.942 14.7337 264.731 16.2915 266.003 17.4036C266.787 18.0276 267.681 18.52 268.656 18.8384C269.483 19.1058 270.361 19.2544 271.276 19.2544C273.811 19.2544 276.079 18.138 277.631 16.3679C278.165 15.7567 278.615 15.0732 278.954 14.3262C279.005 14.1903 279.051 14.0545 279.085 13.9144C279.484 12.4924 279.149 11.2402 278.318 10.5186V10.5228Z" fill="#ED1C2C"/>
<path d="M324.196 10.1241V17.094C324.196 17.1662 324.141 17.2214 324.069 17.2214H322.441C322.369 17.2214 322.314 17.1662 322.314 17.094V10.7353C322.314 8.7233 321.211 7.53902 319.316 7.53902C317.421 7.53902 316.103 8.79121 316.103 10.782V17.094C316.103 17.1662 316.048 17.2214 315.976 17.2214H314.348C314.276 17.2214 314.221 17.1662 314.221 17.094V10.7353C314.221 8.7233 313.119 7.53902 311.224 7.53902C309.469 7.53902 307.997 8.74452 307.997 10.782V17.094C307.997 17.1662 307.942 17.2214 307.87 17.2214H306.255C306.183 17.2214 306.128 17.1662 306.128 17.094V6.11275C306.128 6.04059 306.183 5.98541 306.255 5.98541H307.858C307.93 5.98541 307.985 6.04059 307.985 6.11275V7.04661C307.985 7.16546 308.129 7.22065 308.205 7.13151C309.1 6.11276 310.393 5.75195 311.554 5.75195C313.314 5.75195 314.721 6.50327 315.476 7.75548C315.526 7.84037 315.645 7.84037 315.696 7.75548C316.616 6.24858 318.227 5.75195 319.651 5.75195C322.343 5.75195 324.192 7.50079 324.192 10.1198L324.196 10.1241Z" fill="white"/>
<path d="M337.384 11.4484C337.384 14.7466 334.985 17.1365 331.932 17.1365C330.351 17.1365 329.147 16.5761 328.303 15.689C328.227 15.6083 328.087 15.6635 328.087 15.7781V21.3728C328.087 21.4449 328.032 21.5001 327.96 21.5001H326.345C326.273 21.5001 326.218 21.4449 326.218 21.3728V6.11275C326.218 6.04059 326.273 5.98541 326.345 5.98541H327.96C328.032 5.98541 328.087 6.04059 328.087 6.11275V7.11029C328.087 7.2249 328.227 7.28431 328.303 7.19941C329.147 6.3165 330.351 5.75195 331.932 5.75195C334.985 5.75195 337.384 8.14178 337.384 11.44V11.4484ZM327.969 11.4484C327.969 13.6897 329.507 15.3791 331.712 15.3791C333.916 15.3791 335.455 13.6218 335.455 11.4484C335.455 9.27512 333.942 7.52627 331.712 7.52627C329.482 7.52627 327.969 9.21569 327.969 11.4484Z" fill="white"/>
<path d="M358.593 8.2945C358.56 8.35817 358.479 8.37939 358.415 8.34118C357.695 7.89124 356.376 7.4031 355.015 7.4031C353.523 7.4031 352.557 8.03558 352.557 9.02461C352.557 9.89904 353.349 10.2981 354.668 10.4594L355.931 10.6206C358.25 10.9305 359.619 11.9068 359.619 13.7108C359.619 15.7908 357.758 17.1364 354.787 17.1364C353.472 17.1364 351.709 16.8265 350.293 15.8078C350.238 15.7696 350.225 15.6889 350.259 15.6337L350.992 14.4537C351.03 14.39 351.115 14.3773 351.179 14.4197C351.98 15.014 353.057 15.4979 354.799 15.4979C356.542 15.4979 357.69 14.9121 357.69 13.8339C357.69 13.0317 356.978 12.5223 355.499 12.3398L354.235 12.1912C351.789 11.8941 350.607 10.7904 350.607 9.13496C350.607 7.04228 352.34 5.77734 354.994 5.77734C356.665 5.77734 358.191 6.21031 359.246 6.89372C359.301 6.93193 359.323 7.0041 359.289 7.06353L358.593 8.29875V8.2945Z" fill="white"/>
<path d="M368.166 8.2945C368.132 8.35817 368.052 8.37939 367.988 8.34118C367.267 7.89124 365.949 7.4031 364.588 7.4031C363.096 7.4031 362.129 8.03558 362.129 9.02461C362.129 9.89904 362.922 10.2981 364.24 10.4594L365.504 10.6206C367.823 10.9305 369.188 11.9068 369.188 13.7108C369.188 15.7908 367.327 17.1364 364.355 17.1364C363.041 17.1364 361.277 16.8265 359.861 15.8078C359.806 15.7696 359.793 15.6889 359.827 15.6337L360.561 14.4537C360.599 14.39 360.684 14.3773 360.743 14.4197C361.544 15.014 362.621 15.4979 364.363 15.4979C366.106 15.4979 367.254 14.9121 367.254 13.8339C367.254 13.0317 366.542 12.5223 365.063 12.3398L363.8 12.1912C361.353 11.8941 360.171 10.7904 360.171 9.13496C360.171 7.04228 361.905 5.77734 364.558 5.77734C366.229 5.77734 367.755 6.21031 368.81 6.89372C368.865 6.93193 368.887 7.0041 368.853 7.06353L368.157 8.29875L368.166 8.2945Z" fill="white"/>
<path d="M291.095 14.2586C291.044 14.2077 290.968 14.2077 290.917 14.2586C289.306 15.7825 287.025 15.7401 285.516 14.2247C283.965 12.6711 283.96 10.3407 285.571 8.71919C287.157 7.13164 289.421 7.1189 290.968 8.58335C291.019 8.63004 291.095 8.63429 291.146 8.58335L292.214 7.51368C292.265 7.46274 292.265 7.37785 292.214 7.32691C289.878 5.07717 286.474 5.10262 284.215 7.36085C281.926 9.65303 281.934 13.1253 284.27 15.4642C286.576 17.7733 289.98 17.82 292.274 15.6255C292.325 15.5745 292.325 15.4896 292.274 15.4387L291.091 14.2544L291.095 14.2586Z" fill="white"/>
<path d="M295.081 11.4441C295.148 11.4441 295.204 11.389 295.208 11.3168C295.271 9.09679 296.912 7.51772 299.049 7.51772C301.185 7.51772 302.894 9.16046 302.894 11.4484C302.894 13.7363 301.304 15.3069 299.172 15.3663C299.104 15.3663 299.044 15.4215 299.044 15.4937V17.0091C299.044 17.0812 299.104 17.1407 299.176 17.1407C302.415 17.077 304.806 14.649 304.806 11.4526C304.806 8.25632 302.347 5.76465 299.044 5.76465C295.742 5.76465 293.338 8.14171 293.271 11.3168C293.271 11.389 293.33 11.4484 293.402 11.4484H295.076L295.081 11.4441Z" fill="white"/>
<path d="M349.009 5.9894H347.393C347.321 5.9894 347.266 6.04458 347.266 6.11674V7.09304C346.274 6.20163 344.951 5.67529 343.459 5.67529C340.22 5.67529 337.774 8.13725 337.774 11.4439C337.774 14.7506 340.148 17.1574 343.319 17.2254C343.391 17.2254 343.455 17.1659 343.455 17.0937V15.4171C343.455 15.3492 343.4 15.294 343.328 15.2897C341.111 15.226 339.534 13.5833 339.534 11.4397C339.534 9.2961 341.174 7.58969 343.459 7.58969C345.405 7.58969 347.27 8.95227 347.27 10.5101V17.0937C347.27 17.1659 347.326 17.2211 347.398 17.2211H349.013C349.085 17.2211 349.14 17.1659 349.14 17.0937V6.11249C349.14 6.04458 349.081 5.98515 349.009 5.98515V5.9894Z" fill="white"/>
<path d="M300.261 12.6197L300.808 10.5779C300.926 10.1407 300.524 9.74171 300.087 9.85632L298.048 10.4039C297.611 10.5228 297.463 11.0661 297.785 11.3887L299.277 12.8829C299.595 13.2012 300.142 13.0569 300.261 12.6197Z" fill="#FFCA06"/>
<path d="M371.968 17.2467C372.727 17.2467 373.342 16.631 373.342 15.8714C373.342 15.1119 372.727 14.4961 371.968 14.4961C371.21 14.4961 370.595 15.1119 370.595 15.8714C370.595 16.631 371.21 17.2467 371.968 17.2467Z" fill="white"/>
<path d="M402.61 13.1803C401.283 13.1803 400.673 12.5011 400.673 11.1725V2.99707H396.607V9.06711C395.683 7.08055 393.67 5.70524 391.338 5.70524C389.006 5.70524 386.993 7.08055 386.069 9.06711V5.82833H382.054V11.5418C382.054 12.5733 381.511 13.2695 380.604 13.2695C379.697 13.2695 379.154 12.5691 379.154 11.5418V5.82833H375.089V11.5928C375.089 15.1202 377.251 17.3402 380.6 17.3402C383.288 17.3402 385.208 15.846 385.84 13.4265C386.624 15.706 388.786 17.3402 391.33 17.3402C393.873 17.3402 395.976 15.7484 396.79 13.5156C397.392 16.1049 399.346 17.2511 401.97 17.2511H403V13.1803H402.602H402.61ZM391.342 13.2652C390.384 13.2652 389.6 12.4799 389.6 11.5206C389.6 10.5613 390.384 9.77598 391.342 9.77598C392.3 9.77598 393.085 10.5613 393.085 11.5206C393.085 12.4799 392.3 13.2652 391.342 13.2652Z" fill="white"/>
<path d="M240.113 14.6914C239.617 14.6914 239.181 14.5683 238.808 14.3221C238.435 14.0759 238.185 13.7448 238.062 13.3246H238.189V14.5726H236.743V5.98535H238.202V9.88206H238.062C238.193 9.47881 238.447 9.15622 238.82 8.91851C239.193 8.6808 239.626 8.56194 240.113 8.56194C240.635 8.56194 241.088 8.68504 241.478 8.93548C241.868 9.18592 242.169 9.53824 242.386 9.99243C242.602 10.4466 242.712 10.9942 242.712 11.6309C242.712 12.2676 242.602 12.8152 242.386 13.2694C242.169 13.7236 241.864 14.0759 241.47 14.3179C241.08 14.5641 240.626 14.6872 240.113 14.6872V14.6914ZM239.706 13.5708C240.164 13.5708 240.537 13.4095 240.817 13.0911C241.101 12.7728 241.241 12.2846 241.241 11.6309C241.241 10.9772 241.101 10.4891 240.817 10.1665C240.533 9.84388 240.164 9.68257 239.706 9.68257C239.249 9.68257 238.88 9.84387 238.6 10.1622C238.32 10.4806 238.18 10.9687 238.18 11.6182C238.18 12.2676 238.32 12.76 238.6 13.0826C238.88 13.4052 239.249 13.5665 239.706 13.5665V13.5708Z" fill="white"/>
<path d="M245.832 17.2215L245.493 16.0669C245.858 15.9905 246.163 15.9013 246.413 15.7995C246.663 15.6976 246.867 15.566 247.032 15.4047C247.197 15.2434 247.333 15.0312 247.439 14.7765L247.732 14.0888L247.698 14.6619L245.133 8.68945H246.684L248.524 13.2866H248.185L250.038 8.68945H251.504L248.825 14.9081C248.647 15.3283 248.452 15.6764 248.244 15.9523C248.032 16.2282 247.808 16.4489 247.566 16.6187C247.325 16.7843 247.062 16.9159 246.773 17.0092C246.485 17.1026 246.171 17.1748 245.828 17.23L245.832 17.2215Z" fill="white"/>
<path d="M11.9506 0C17.1098 0 21.4381 3.16659 22.9685 7.99716H19.2761C17.9449 5.13193 15.448 3.20056 11.9548 3.20056C7.16017 3.20056 3.50166 7.03359 3.50166 12C3.50166 16.9664 7.16441 20.7994 11.9548 20.7994C15.448 20.7994 17.9449 18.8681 19.2761 16.0028H22.9685C21.4381 20.8334 17.1098 24 11.9506 24C5.19313 24 0 18.7662 0 12.0042C0 5.24229 5.19313 0.00847195 11.9506 0.00847195V0Z" fill="white"/>
<path d="M46.5303 16.1641V23.6604H43.2024V16.5292C43.2024 14.5978 42.1045 13.596 39.9764 13.596H31.0569V23.6604H27.7969V0.331055H46.2336V1.33284C46.2336 5.2338 45.1695 8.53197 42.274 10.8326C45.0381 11.2656 46.5345 13.6003 46.5345 16.1641H46.5303ZM42.5708 3.40005H31.0569V10.4973H34.7832C39.8746 10.4973 42.2401 7.09726 42.5708 3.40005Z" fill="white"/>
<path d="M69.8292 0.335449V6.76631C69.8292 10.4338 66.6031 13.8975 62.0077 13.9994V23.6648H58.6799V13.9994C54.0887 13.8975 50.8584 10.4338 50.8584 6.76631V0.335449H54.1863V6.76631C54.1863 8.99906 56.2508 10.8965 58.8791 10.8965H61.8085C64.4369 10.8965 66.5014 8.99906 66.5014 6.76631V0.335449H69.8292Z" fill="white"/>
<path d="M93.1247 0.335449V1.33721C93.1247 9.60181 86.8336 14.8356 78.4822 14.8356V23.6648H75.1543V0.335449H93.1289H93.1247ZM89.6315 3.4002H78.4822V11.8006C84.5062 11.8006 88.7328 8.50243 89.6315 3.4002Z" fill="white"/>
<path d="M120.918 12.0001C120.918 5.23395 126.209 0.00439453 133.068 0.00439453C139.927 0.00439453 145.218 5.23819 145.218 12.0001C145.218 18.7621 139.927 23.9959 133.068 23.9959C126.209 23.9959 120.918 18.7621 120.918 12.0001ZM141.72 12.0001C141.72 7.03373 137.96 3.2007 133.068 3.2007C128.176 3.2007 124.415 7.03373 124.415 12.0001C124.415 16.9665 128.176 20.7996 133.068 20.7996C137.96 20.7996 141.72 16.9665 141.72 12.0001Z" fill="white"/>
<path d="M168.478 18.465V23.6648H149.74L149.706 0.335474H152.936V3.26863C154.369 1.13775 156.731 0.00439453 159.791 0.00439453C164.217 0.00439453 167.681 2.56823 167.681 6.57106C167.681 8.83778 166.515 10.905 164.455 12.0383C167.049 13.0359 168.482 15.4045 168.482 18.4692L168.478 18.465ZM153.034 10.4338V10.7012H159.724C162.954 10.7012 164.251 9.16886 164.251 6.80027C164.251 4.43168 162.555 2.83566 159.49 2.83566C155.565 2.83566 153.034 5.56931 153.034 10.4338ZM165.15 20.5958V18.83C165.15 15.1965 163.285 13.5962 159.325 13.5962H153.034V20.5958H165.15Z" fill="white"/>
<path d="M176.965 0.335449V23.6648H173.637V0.335449H176.965Z" fill="white"/>
<path d="M202.426 23.6604H199.098C199.098 17.7304 195.736 13.4644 189.411 13.4644H186.88V23.6604H183.62V0.331055H186.88V10.5313H189.411C194.969 10.5313 198.631 6.99961 198.631 0.331055H201.959C201.959 5.49696 199.797 10.1959 195.371 11.8302C200.064 13.4984 202.426 18.295 202.426 23.6604Z" fill="white"/>
<path d="M225.458 16.3638C224.627 21.2283 220.566 23.9959 215.208 23.9959C209.451 23.9959 205.754 21.3641 205.754 16.9326C205.754 14.6319 206.852 12.7345 209.417 11.6351C207.318 10.5017 206.322 8.66799 206.288 6.60078C206.22 2.63615 209.917 0.00439453 215.509 0.00439453C220.036 0.00439453 224.326 2.4706 225.127 7.33512H221.664C221.1 4.43593 218.404 3.2007 215.475 3.2007C211.846 3.2007 209.785 4.56752 209.785 6.83424C209.785 8.70194 211.282 10.4678 214.478 10.4678H218.205V13.4986H214.478C210.32 13.4986 209.188 15.1668 209.188 16.8986C209.188 19.2333 211.286 20.7996 215.212 20.7996C218.641 20.7996 220.935 19.4667 222.067 16.368H225.462L225.458 16.3638Z" fill="white"/>
<path d="M117.92 8.30285H114.723V3.502H108.597V23.6308H105.269V3.502H99.1437V8.30285H95.9473V0.305664H117.915V8.30285H117.92Z" fill="white"/>
<path d="M114.718 14.1099H111.479V18.8725H114.718V14.1099Z" fill="white"/>
<path d="M102.386 18.9316H99.1475V23.6943H102.386V18.9316Z" fill="white"/>
</svg>
