<svg width="42" height="32" viewBox="0 0 42 32" fill="none" xmlns="http://www.w3.org/2000/svg">
<path fill-rule="evenodd" clip-rule="evenodd" d="M0 0H42V32H0V0Z" fill="#229E45"/>
<path fill-rule="evenodd" clip-rule="evenodd" d="M21.0918 29.0667L40.8777 16.02L20.9736 2.93335L1.12207 16.0467L21.0918 29.0667Z" fill="#F8E509"/>
<path fill-rule="evenodd" clip-rule="evenodd" d="M29.7149 16C29.7149 20.6867 25.9677 24.4867 21.3412 24.4867C19.6879 24.484 18.0725 23.9835 16.6991 23.0483C15.3258 22.1132 14.2563 20.7854 13.6257 19.2328C12.9951 17.6802 12.8318 15.9726 13.1564 14.3257C13.481 12.6789 14.279 11.1668 15.4494 9.98058C16.6198 8.79436 18.1102 7.9873 19.7321 7.66142C21.3539 7.33553 23.0345 7.50546 24.5613 8.14971C26.0881 8.79396 27.3927 9.88362 28.31 11.2809C29.2273 12.6782 29.7162 14.3205 29.7149 16Z" fill="#2B49A3"/>
<path fill-rule="evenodd" clip-rule="evenodd" d="M18.5918 21.0867L18.3293 20.9334L18.0668 21.0667L18.1258 20.7667L17.9158 20.5401L18.2112 20.5067L18.3555 20.2401L18.4802 20.5201L18.769 20.5734L18.5524 20.7734M24.1962 22.5267L23.9402 22.3734L23.6777 22.5067L23.7302 22.2067L23.5268 21.9867L23.8221 21.9534L23.9599 21.6801L24.0912 21.9601L24.3799 22.0134L24.1568 22.2201M21.7812 20.2201L21.558 20.0867L21.3283 20.2067L21.3808 19.9467L21.1971 19.7534L21.4596 19.7267L21.5777 19.4867L21.6827 19.7334L21.9387 19.7801L21.7418 19.9601M27.4512 19.3934L27.228 19.2601L26.9983 19.3801L27.0508 19.1201L26.8737 18.9334L27.1296 18.9067L27.2477 18.6734L27.3527 18.9134L27.6021 18.9601L27.4118 19.1334M21.6827 17.6667L21.4202 17.5201L21.1577 17.6534L21.2102 17.3467L21.0068 17.1267L21.3021 17.0934L21.4399 16.8201L21.5712 17.1001L21.8599 17.1534L21.6368 17.3667M14.7724 15.0334L14.5099 14.8867L14.2474 15.0201L14.313 14.7134L14.0965 14.4934L14.3983 14.4601L14.5296 14.1867L14.6608 14.4667L14.9496 14.5201L14.733 14.7267M15.6058 18.5401L15.3433 18.3867L15.0808 18.5201L15.1399 18.2201L14.9299 18.0001L15.2252 17.9601L15.363 17.6934L15.4943 17.9734L15.783 18.0267L15.5665 18.2334M24.229 13.7467L23.9927 13.6134L23.7565 13.7334L23.809 13.4667L23.6252 13.2667L23.8877 13.2334L24.0124 12.9934L24.124 13.2467L24.3865 13.2934L24.1896 13.4734M23.7499 16.0267L23.5727 15.9201L23.3824 16.0134L23.4218 15.8001L23.2774 15.6467L23.4874 15.6201L23.5858 15.4334L23.6712 15.6334L23.868 15.6667L23.7237 15.8134M14.3918 19.1734L14.2146 19.0734L14.0374 19.1601L14.0768 18.9601L13.939 18.8134L14.1358 18.7867L14.2277 18.6067L14.313 18.7934L14.5099 18.8334L14.359 18.9667M27.4971 19.9867L27.3527 19.9134L27.2083 19.9801L27.2412 19.8267L27.1296 19.7201L27.2871 19.7001L27.3658 19.5667L27.4315 19.7001L27.5955 19.7334L27.4708 19.8334" fill="#FFFFEF"/>
<path fill-rule="evenodd" clip-rule="evenodd" d="M14.3918 19.1734L14.2146 19.0734L14.0374 19.16L14.0768 18.96L13.939 18.8134L14.1358 18.7867L14.2277 18.6067L14.313 18.7934L14.5099 18.8334L14.359 18.9667" fill="#FFFFEF"/>
<path fill-rule="evenodd" clip-rule="evenodd" d="M14.3918 19.1734L14.2146 19.0734L14.0374 19.1601L14.0768 18.9601L13.939 18.8134L14.1358 18.7867L14.2277 18.6067L14.313 18.7934L14.5099 18.8334L14.359 18.9667M17.1349 19.1667L16.9643 19.0734L16.7871 19.1601L16.8265 18.9601L16.6887 18.8134L16.8855 18.7867L16.9774 18.6067L17.0627 18.7934L17.2596 18.8267L17.1087 18.9667M16.7937 20.1001L16.623 20.0001L16.4458 20.0934L16.4852 19.8934L16.3474 19.7401L16.5443 19.7134L16.6362 19.5334L16.7215 19.7201L16.9183 19.7601L16.7674 19.8934M22.503 18.4134L22.3324 18.3067L22.1487 18.4001L22.188 18.2001L22.0568 18.0467L22.2537 18.0267L22.3455 17.8467L22.4243 18.0334L22.6212 18.0667L22.4768 18.2067M20.8296 18.4067L20.6524 18.3067L20.4752 18.4001L20.5146 18.2001L20.3833 18.0467L20.5802 18.0267L20.6721 17.8401L20.7508 18.0334L20.9477 18.0667L20.8033 18.2067M16.2883 17.8201L16.1768 17.7534L16.0652 17.8067L16.0915 17.6801L16.0062 17.5867L16.1308 17.5734L16.1833 17.4601L16.2358 17.5801L16.3605 17.6001L16.2687 17.6867M27.2805 20.7134L27.1099 20.6134L26.9327 20.7067L26.9721 20.5067L26.8343 20.3534L27.0312 20.3267L27.123 20.1467L27.2083 20.3334L27.4052 20.3734L27.2543 20.5067M25.8893 20.9067L25.7449 20.8134L25.594 20.8934L25.6268 20.7201L25.5152 20.6001L25.6793 20.5801L25.758 20.4267L25.8237 20.5867L25.9877 20.6134L25.863 20.7334M26.5455 20.8867L26.4143 20.8067L26.2765 20.8734L26.3027 20.7201L26.1977 20.6067L26.3487 20.5867L26.4208 20.4534L26.4865 20.5867L26.6374 20.6201L26.5258 20.7267M28.4355 19.2067L28.3043 19.1401L28.173 19.2067L28.2058 19.0534L28.1008 18.9401L28.2518 18.9201L28.3174 18.7867L28.383 18.9267L28.5208 18.9534L28.4158 19.0601M25.8696 21.8467L25.7055 21.7534L25.5283 21.8334L25.5677 21.6467L25.4365 21.5134L25.6333 21.4934L25.7187 21.3267L25.7974 21.5001L25.9943 21.5334L25.8433 21.6601M25.8827 22.6067L25.7252 22.5134L25.5677 22.6001L25.6071 22.4134L25.4824 22.2801L25.6596 22.2534L25.7383 22.0867L25.8105 22.2601L25.9877 22.2934L25.8565 22.4267M24.6096 20.8867L24.4849 20.8067L24.3537 20.8734L24.3799 20.7267L24.2815 20.6134L24.4258 20.6001L24.4915 20.4667L24.5571 20.6001L24.7015 20.6267L24.5965 20.7334M23.4283 20.8867L23.2971 20.8067L23.1658 20.8734L23.1987 20.7267L23.0937 20.6134L23.2446 20.6001L23.3102 20.4667L23.3758 20.6001L23.5137 20.6267L23.4087 20.7334M21.4137 19.0934L21.2824 19.0201L21.1512 19.0867L21.184 18.9334L21.079 18.8267L21.2233 18.8067L21.289 18.6734L21.3546 18.8067L21.499 18.8401L21.394 18.9401M21.6368 22.7401L21.5318 22.6801L21.4137 22.7401L21.4399 22.6067L21.3546 22.5134L21.4793 22.5001L21.5383 22.3867L21.5908 22.5067L21.7155 22.5267L21.6237 22.6134M18.5918 16.8401L18.3293 16.6867L18.0668 16.8201L18.1258 16.5201L17.9158 16.3001L18.2112 16.2601L18.3555 15.9934L18.4802 16.2734L18.769 16.3267L18.5524 16.5334" fill="#FFFFEF"/>
<path fill-rule="evenodd" clip-rule="evenodd" d="M29.1637 19.0534C29.3262 18.6248 29.4535 18.1833 29.5443 17.7334C25.0949 13.7667 20.1402 11.7334 13.8796 12.1534C13.6525 12.5997 13.4658 13.0661 13.3218 13.5467C20.7374 12.8267 26.1843 16.16 29.1637 19.0534Z" fill="white"/>
<path d="M27.1687 16.8266L27.3196 16.9132C27.2971 16.9585 27.2902 17.0102 27.3 17.0599C27.3153 17.1081 27.3482 17.1487 27.3918 17.1732C27.4378 17.2066 27.4837 17.2266 27.5231 17.2199C27.5625 17.2199 27.5887 17.1999 27.6084 17.1732C27.6198 17.1555 27.6245 17.1342 27.6215 17.1132C27.6161 17.0886 27.6049 17.0657 27.5887 17.0466C27.5756 17.0266 27.5428 16.9799 27.4903 16.9266C27.4363 16.87 27.3959 16.8016 27.3721 16.7266C27.3558 16.6698 27.36 16.609 27.3841 16.5551C27.4082 16.5013 27.4505 16.458 27.5034 16.4332C27.5511 16.413 27.6039 16.4083 27.6543 16.4199C27.716 16.4343 27.7741 16.4616 27.825 16.4999C27.9168 16.5666 27.9759 16.6332 27.9956 16.7132C28.0047 16.7507 28.0058 16.7896 27.9991 16.8275C27.9923 16.8654 27.9777 16.9015 27.9562 16.9332L27.7987 16.8332C27.8184 16.7932 27.825 16.7532 27.8118 16.7199C27.8053 16.6866 27.779 16.6532 27.7331 16.6266C27.6994 16.599 27.6581 16.5827 27.615 16.5799C27.6031 16.5795 27.5913 16.5824 27.5809 16.5883C27.5705 16.5941 27.5618 16.6028 27.5559 16.6132C27.5428 16.6332 27.5428 16.6532 27.5493 16.6799C27.5559 16.7066 27.5887 16.7599 27.6543 16.8266C27.72 16.8932 27.7593 16.9532 27.7856 16.9932C27.809 17.0369 27.8196 17.0865 27.8161 17.1362C27.8126 17.1858 27.7952 17.2334 27.7659 17.2732C27.7352 17.3186 27.6917 17.3534 27.6412 17.3732C27.592 17.3963 27.537 17.4032 27.4837 17.3932C27.4246 17.3799 27.3656 17.3532 27.3 17.3066C27.2015 17.2399 27.1425 17.1666 27.1228 17.0866C27.1014 16.9959 27.1155 16.9003 27.1621 16.8199L27.1687 16.8266ZM26.4075 16.3199L26.5715 16.4066C26.5512 16.4526 26.5466 16.5042 26.5584 16.5532C26.5752 16.599 26.6079 16.6369 26.6503 16.6599C26.7028 16.6932 26.7421 16.7066 26.7815 16.6999C26.8209 16.6999 26.8471 16.6799 26.8668 16.6466C26.8768 16.6307 26.8814 16.612 26.88 16.5932C26.88 16.5732 26.8668 16.5466 26.8471 16.5266C26.8135 16.4853 26.7785 16.4453 26.7421 16.4066C26.67 16.3332 26.624 16.2732 26.6109 16.2199C26.6002 16.1856 26.597 16.1493 26.6015 16.1136C26.606 16.0779 26.6182 16.0437 26.6371 16.0132C26.6621 15.9721 26.6987 15.9396 26.7421 15.9199C26.7872 15.8988 26.8375 15.8918 26.8865 15.8999C26.9472 15.9103 27.0052 15.933 27.0571 15.9666C27.1556 16.0332 27.2146 16.0999 27.2343 16.1732C27.2463 16.2107 27.2501 16.2504 27.2456 16.2895C27.2411 16.3286 27.2283 16.3663 27.2081 16.3999L27.044 16.3066C27.0637 16.2599 27.0703 16.2266 27.0571 16.1932C27.044 16.1599 27.0178 16.1266 26.9718 16.0999C26.9355 16.0734 26.8918 16.0594 26.8471 16.0599C26.8364 16.0606 26.8259 16.0641 26.8168 16.0699C26.8076 16.0757 26.8 16.0837 26.7946 16.0932C26.7815 16.1132 26.7815 16.1332 26.7881 16.1599C26.7946 16.1866 26.834 16.2399 26.8996 16.3066C26.9653 16.3732 27.0112 16.4266 27.0309 16.4666C27.0572 16.5084 27.0712 16.557 27.0712 16.6066C27.0712 16.6562 27.0572 16.7048 27.0309 16.7466C27.0026 16.7931 26.9616 16.8302 26.9128 16.8532C26.8636 16.8763 26.8085 16.8832 26.7553 16.8732C26.6877 16.8616 26.6231 16.8367 26.565 16.7999C26.4801 16.754 26.4148 16.6781 26.3812 16.5866C26.3559 16.4976 26.3653 16.402 26.4075 16.3199ZM25.4756 16.0666L25.9546 15.2666L26.5321 15.6332L26.4534 15.7666L26.0334 15.4999L25.9284 15.6799L26.3221 15.9266L26.2368 16.0599L25.8431 15.8132L25.7118 16.0332L26.1515 16.2999L26.0728 16.4332L25.4821 16.0666H25.4756ZM24.1171 14.9332L24.1893 14.7999L24.5437 14.9799L24.3796 15.3132C24.3271 15.3266 24.2615 15.3332 24.1828 15.3266C24.1072 15.3181 24.0337 15.2955 23.9662 15.2599C23.8868 15.2206 23.8189 15.1608 23.7693 15.0866C23.7242 15.0176 23.7013 14.936 23.7037 14.8532C23.707 14.767 23.7295 14.6827 23.7693 14.6066C23.8088 14.5264 23.8674 14.4576 23.94 14.4066C24.0093 14.3578 24.0919 14.3322 24.1762 14.3332C24.2418 14.3332 24.3075 14.3532 24.3862 14.3999C24.4912 14.4466 24.5568 14.5132 24.5896 14.5866C24.6238 14.6594 24.6308 14.7423 24.6093 14.8199L24.4321 14.7666C24.443 14.7219 24.4384 14.6748 24.419 14.6332C24.3993 14.5932 24.3665 14.5666 24.314 14.5399C24.2834 14.5222 24.2495 14.5112 24.2144 14.5078C24.1793 14.5043 24.144 14.5084 24.1106 14.5199C24.045 14.5399 23.9859 14.5999 23.94 14.6932C23.894 14.7866 23.8743 14.8732 23.894 14.9466C23.9031 14.9813 23.9195 15.0137 23.9422 15.0413C23.9649 15.069 23.9932 15.0912 24.0253 15.1066C24.0581 15.1266 24.0975 15.1399 24.1368 15.1399C24.176 15.1459 24.2158 15.1459 24.255 15.1399L24.3075 15.0332L24.1171 14.9332ZM18.1978 13.4466L18.329 12.5132L18.6046 12.5599L18.6768 13.2132L18.9328 12.6132L19.2084 12.6532L19.0771 13.5732L18.9 13.5466L19.0115 12.8199L18.7228 13.5199L18.5456 13.4932L18.4734 12.7399L18.3684 13.4732L18.1978 13.4466ZM17.2725 13.3332L17.3578 12.3999L18.0337 12.4666L18.0206 12.6266L17.5284 12.5799L17.5087 12.7799L17.9681 12.8266L17.9484 12.9866L17.489 12.9399L17.4693 13.1932L17.9812 13.2399L17.9681 13.3999L17.2725 13.3332Z" fill="#309E3A"/>
<path d="M14.2076 12.7534C14.2076 12.6534 14.2273 12.5801 14.2536 12.5134C14.2766 12.466 14.3077 12.4231 14.3454 12.3868C14.3791 12.3523 14.4193 12.3251 14.4636 12.3068C14.5292 12.2868 14.5948 12.2734 14.6604 12.2734C14.7982 12.2734 14.9032 12.3268 14.9886 12.4068C15.0292 12.4577 15.0594 12.5164 15.0774 12.5794C15.0954 12.6423 15.1009 12.7083 15.0936 12.7734C15.0936 12.9201 15.0476 13.0401 14.9623 13.1268C14.9185 13.1679 14.8666 13.1993 14.8101 13.2188C14.7536 13.2383 14.6936 13.2456 14.6342 13.2401C14.5755 13.2407 14.5174 13.2292 14.4632 13.2063C14.4091 13.1834 14.3601 13.1495 14.3192 13.1068C14.2375 13.0086 14.1974 12.8816 14.2076 12.7534Z" fill="#309E3A"/>
<path d="M14.3979 12.7535C14.3979 12.8535 14.4176 12.9335 14.4636 12.9935C14.5095 13.0468 14.5686 13.0801 14.6473 13.0801C14.6814 13.0826 14.7156 13.0772 14.7474 13.0646C14.7791 13.0519 14.8077 13.0321 14.8311 13.0068C14.877 12.9535 14.8967 12.8735 14.9033 12.7601C14.9033 12.6535 14.8901 12.5735 14.8376 12.5201C14.8163 12.4933 14.7893 12.4716 14.7586 12.4566C14.728 12.4416 14.6945 12.4337 14.6604 12.4335C14.6259 12.4324 14.5916 12.4389 14.5598 12.4528C14.5281 12.4666 14.4997 12.4873 14.4767 12.5135C14.4242 12.5668 14.4045 12.6468 14.3979 12.7535Z" fill="#F7FFFF"/>
<path d="M15.2905 13.2334L15.3037 12.3H15.6974C15.7958 12.3 15.8615 12.3134 15.9074 12.3334C15.9533 12.3467 15.9862 12.38 16.0124 12.42C16.0387 12.46 16.0518 12.5134 16.0518 12.5734C16.0523 12.6375 16.0288 12.6995 15.9862 12.7467C15.9376 12.7929 15.8752 12.8211 15.809 12.8267L15.9074 12.9067C15.9337 12.9334 15.9665 12.9867 16.0058 13.06L16.1174 13.2467H15.8943L15.763 13.0334L15.6712 12.9C15.6552 12.8817 15.6349 12.8679 15.6121 12.86C15.5822 12.8512 15.5513 12.8467 15.5202 12.8467H15.4808V13.2334H15.2905Z" fill="#309E3A"/>
<path d="M15.4873 12.7H15.6186C15.7104 12.7 15.7695 12.7 15.7892 12.6866C15.8089 12.6866 15.8286 12.6666 15.8417 12.6533C15.8548 12.64 15.8614 12.6066 15.8614 12.5866C15.8614 12.5466 15.8548 12.52 15.8351 12.5066C15.822 12.4866 15.7957 12.4733 15.7695 12.4666H15.6382L15.4873 12.46V12.6933V12.7Z" fill="white"/>
<path d="M16.3409 12.3467L16.6821 12.3667C16.7543 12.3667 16.8134 12.3733 16.8527 12.3867C16.9038 12.4055 16.9491 12.4377 16.984 12.48C17.0218 12.5266 17.0487 12.5813 17.0627 12.64C17.0824 12.7 17.089 12.7733 17.0824 12.86C17.0824 12.9281 17.0713 12.9956 17.0496 13.06C17.0234 13.1267 16.984 13.18 16.938 13.22C16.8998 13.252 16.8549 13.2748 16.8068 13.2867C16.7674 13.3 16.7084 13.3 16.6427 13.3L16.2949 13.28L16.3409 12.3467Z" fill="#309E3A"/>
<path d="M16.5182 12.5134L16.4854 13.1334H16.7347C16.7675 13.1334 16.7938 13.1201 16.8135 13.1001C16.8332 13.0801 16.8529 13.0534 16.866 13.0134C16.8791 12.9734 16.8922 12.9134 16.8922 12.8401L16.8857 12.6734C16.8763 12.6383 16.8582 12.6061 16.8332 12.5801C16.8114 12.5578 16.7842 12.5417 16.7544 12.5334C16.7048 12.5222 16.6543 12.5155 16.6035 12.5134H16.5182Z" fill="white"/>
<path d="M20.8423 14.0134L21.0588 13.1067L21.3476 13.1734L21.5576 13.24C21.6035 13.2667 21.6429 13.3067 21.6626 13.3667C21.6888 13.42 21.6888 13.48 21.6757 13.5534C21.6626 13.6067 21.6429 13.6534 21.6101 13.6867C21.586 13.716 21.5559 13.7395 21.5219 13.7556C21.4879 13.7718 21.4508 13.7801 21.4132 13.78C21.3673 13.78 21.3017 13.7667 21.2163 13.7467L21.1048 13.7134L21.026 14.06L20.8423 14.0134Z" fill="#309E3A"/>
<path d="M21.1965 13.3066L21.144 13.56L21.2425 13.5866C21.3081 13.6 21.3606 13.6133 21.3869 13.6066C21.4124 13.603 21.4362 13.5915 21.455 13.5736C21.4738 13.5557 21.4867 13.5323 21.4919 13.5066C21.4919 13.4733 21.4919 13.4466 21.4787 13.42C21.4643 13.3929 21.4411 13.3717 21.4131 13.36L21.2884 13.3266L21.2031 13.3066H21.1965Z" fill="white"/>
<path d="M21.6958 14.2733L22.0042 13.3933L22.3652 13.5266C22.4636 13.56 22.5227 13.5933 22.562 13.62C22.5949 13.6533 22.6211 13.6866 22.6277 13.74C22.6342 13.7933 22.6408 13.84 22.6277 13.8933C22.6014 13.96 22.5621 14.0066 22.5096 14.04C22.4571 14.0666 22.3914 14.0733 22.3127 14.06C22.3389 14.0933 22.3652 14.1266 22.3783 14.1666L22.4308 14.3466L22.4702 14.5533L22.2667 14.48L22.2011 14.24C22.1892 14.1857 22.1738 14.1323 22.1552 14.08C22.1465 14.0592 22.133 14.0409 22.1158 14.0266C22.1027 14.0066 22.0764 13.9933 22.0305 13.98L21.9977 13.9666L21.8664 14.34L21.6958 14.2733Z" fill="#309E3A"/>
<path d="M22.05 13.8267L22.1747 13.8734C22.26 13.9067 22.3125 13.92 22.3388 13.92C22.3585 13.92 22.3781 13.92 22.3978 13.9C22.4175 13.8867 22.4306 13.8667 22.4372 13.84C22.4503 13.8134 22.4503 13.7867 22.4372 13.76C22.4275 13.7342 22.4088 13.7128 22.3847 13.7L22.2535 13.6534L22.1222 13.6067L22.0435 13.8267H22.05Z" fill="white"/>
<path d="M22.7721 14.2399C22.7947 14.1618 22.8326 14.0892 22.8837 14.0265C22.9169 13.9863 22.9569 13.9525 23.0018 13.9265C23.0425 13.9032 23.0869 13.8874 23.133 13.8799C23.1987 13.8799 23.2643 13.8799 23.3365 13.9066C23.3951 13.9213 23.4501 13.9485 23.4976 13.9865C23.5451 14.0244 23.5841 14.0721 23.6121 14.1265C23.6646 14.2332 23.6646 14.3599 23.6252 14.5066C23.5928 14.6326 23.5126 14.7404 23.4021 14.8066C23.3037 14.8666 23.1855 14.8732 23.0609 14.8332C23.0024 14.8181 22.9476 14.7907 22.9002 14.7528C22.8527 14.7149 22.8135 14.6674 22.7852 14.6132C22.7589 14.5549 22.7443 14.4919 22.742 14.4279C22.7398 14.3638 22.75 14.2999 22.7721 14.2399Z" fill="#309E3A"/>
<path d="M22.9558 14.2931C22.9296 14.3931 22.923 14.4798 22.9558 14.5464C22.9886 14.6131 23.0346 14.6531 23.1067 14.6798C23.1724 14.6998 23.238 14.6931 23.3036 14.6531C23.3692 14.6198 23.4086 14.5464 23.4414 14.4398C23.4742 14.3398 23.4742 14.2598 23.4414 14.1931C23.4285 14.1615 23.4088 14.1331 23.3839 14.1101C23.3589 14.087 23.3293 14.0699 23.2971 14.0598C23.2648 14.0484 23.2305 14.0444 23.1965 14.0478C23.1625 14.0513 23.1296 14.0622 23.1002 14.0798C23.0346 14.1198 22.9886 14.1864 22.9558 14.2931Z" fill="white"/>
<path d="M24.5635 15.54L24.9835 14.7134L25.3313 14.8934C25.3969 14.9253 25.4567 14.9681 25.5085 15.02C25.5413 15.0534 25.561 15.0934 25.561 15.1467C25.561 15.2 25.561 15.2467 25.5347 15.2934C25.5095 15.3533 25.4625 15.4011 25.4035 15.4267C25.3379 15.44 25.2722 15.44 25.2 15.4134C25.2263 15.4534 25.2394 15.4934 25.2525 15.5267C25.2657 15.5667 25.2722 15.6267 25.2788 15.7134L25.2919 15.9267L25.095 15.8267L25.0688 15.58C25.0657 15.5241 25.0591 15.4685 25.0491 15.4134C25.0446 15.3884 25.0332 15.3653 25.0163 15.3467L24.9375 15.3L24.9047 15.28L24.7275 15.6267L24.5635 15.54Z" fill="#309E3A"/>
<path d="M24.9702 15.1467L25.0949 15.2133C25.1737 15.2533 25.2262 15.28 25.2458 15.28C25.2655 15.28 25.2918 15.28 25.3115 15.2667C25.3312 15.26 25.3443 15.24 25.3574 15.2133C25.3705 15.1867 25.3771 15.16 25.3705 15.1333C25.3624 15.1068 25.3464 15.0835 25.3246 15.0667C25.2862 15.0427 25.2468 15.0205 25.2065 15L25.0752 14.9333L24.9702 15.1467Z" fill="white"/>
<path d="M27.9627 17.2466C28.0052 17.1781 28.061 17.1191 28.1268 17.0733C28.1709 17.0446 28.2198 17.0242 28.2711 17.0133C28.3188 17.0034 28.3679 17.0034 28.4155 17.0133C28.4811 17.0266 28.5402 17.0533 28.5993 17.0933C28.6503 17.1256 28.6942 17.1684 28.7281 17.2189C28.762 17.2694 28.7852 17.3265 28.7961 17.3866C28.8158 17.4999 28.783 17.6266 28.7043 17.7533C28.6384 17.8634 28.5322 17.9426 28.4089 17.9733C28.3502 17.9862 28.2894 17.9863 28.2306 17.9737C28.1718 17.961 28.1163 17.9359 28.0677 17.8999C28.0166 17.8676 27.9727 17.8248 27.9388 17.7743C27.9049 17.7238 27.8818 17.6667 27.8708 17.6066C27.8511 17.4866 27.8839 17.3666 27.9627 17.2466Z" fill="#309E3A"/>
<path d="M28.1268 17.3532C28.0612 17.4399 28.0415 17.5199 28.0546 17.5932C28.0595 17.627 28.0713 17.6593 28.0894 17.6881C28.1075 17.7168 28.1315 17.7413 28.1596 17.7599C28.2252 17.8066 28.2909 17.8199 28.3565 17.7999C28.4221 17.7799 28.4877 17.7332 28.5468 17.6399C28.6059 17.5466 28.6321 17.4666 28.619 17.3999C28.6124 17.3332 28.5731 17.2732 28.514 17.2266C28.4549 17.1799 28.3827 17.1732 28.3171 17.1932C28.2515 17.2066 28.1859 17.2599 28.1202 17.3532H28.1268Z" fill="white"/>
<path d="M19.8057 13.6333L19.9566 12.98L20.4291 13.0933L20.4094 13.2L20.0616 13.12L20.0288 13.2666L20.3504 13.34L20.3241 13.4533L20.0025 13.3733L19.9632 13.5533L20.3241 13.64L20.2979 13.7466L19.8057 13.6333Z" fill="#309E3A"/>
</svg>
