<svg width="232" height="268" viewBox="0 0 232 268" fill="none" xmlns="http://www.w3.org/2000/svg">
<path d="M127.072 163.719H105.376V151.986C105.376 146.857 105.952 143.074 107.104 140.638C108.384 138.073 111.072 134.739 115.168 130.636L129.184 116.594C132.128 113.389 133.6 109.413 133.6 104.669C133.6 99.9243 132.064 96.0132 128.992 92.9357C125.92 89.7299 121.952 88.127 117.088 88.127C112.224 88.127 108.128 89.6658 104.8 92.7433C101.6 95.6926 99.744 99.6678 99.232 104.669H76C77.28 93.2562 81.696 84.3442 89.248 77.9326C96.928 71.3928 106.464 68.1229 117.856 68.1229C129.248 68.1229 138.528 71.2646 145.696 77.5479C152.864 83.703 156.448 92.3586 156.448 103.515C156.448 111.209 154.336 117.62 150.112 122.749C147.68 125.827 145.824 128.007 144.544 129.289C143.264 130.572 141.536 132.239 139.36 134.29C137.312 136.214 135.52 137.945 133.984 139.484C132.576 140.894 131.424 142.112 130.528 143.138C128.224 145.959 127.072 149.934 127.072 155.064V163.719Z" fill="white"/>
<path d="M105.333 178.99H126.667V200.361H105.333V178.99Z" fill="#F8F9FC"/>
<path d="M115.536 260.284H116.391V261.57H117.675V262.427H116.391V263.713H115.536V262.427H114.252V261.57H115.536V260.284Z" fill="white"/>
<path d="M114.252 267.143V268H117.675V267.143H114.252Z" fill="white"/>
<path d="M40.8119 58.3425L40.265 58.8904L34.8017 53.4172L33.6999 52.3208L33.7036 52.3171L24.9536 43.5508L25.5005 43.003L34.2506 51.769L34.2541 51.7655L35.2846 52.8049L40.8119 58.3425Z" fill="white"/>
<path d="M116.395 18.0054L116.388 20.2057L116.388 27.3015L115.615 27.3015L115.615 20.2267L115.607 18.0054L115.615 18.0053L116.001 18.0047C116.079 18.0047 116.157 18.0048 116.234 18.0049L116.388 18.0047L116.395 18.0054Z" fill="white"/>
<path d="M110.319 18.1418L110.506 22.0109C110.253 22.0231 110 22.0362 109.748 22.0501L109.536 18.1822C109.797 18.1679 110.058 18.1544 110.319 18.1418Z" fill="white"/>
<path d="M104.263 18.5925L104.65 22.4467C104.397 22.4721 104.145 22.4983 103.894 22.5254L103.481 18.6739C103.742 18.6458 104.002 18.6188 104.263 18.5925Z" fill="white"/>
<path d="M98.2376 19.359L98.8248 23.1877C98.5742 23.2263 98.3239 23.2657 98.0739 23.3059L97.4607 19.4813C97.7193 19.4396 97.9783 19.3989 98.2376 19.359Z" fill="white"/>
<path d="M92.2596 20.4411L93.0469 24.2336C92.7989 24.2853 92.5512 24.3378 92.3038 24.3911L91.4908 20.6041C91.7467 20.5489 92.003 20.4946 92.2596 20.4411Z" fill="white"/>
<path d="M86.5087 22.4514L86.347 21.8369C86.0937 21.9038 85.8409 21.9715 85.5883 22.0401L86.4661 25.2856L88.0065 31.0452L88.7535 30.8447L86.5087 22.4514Z" fill="white"/>
<path d="M80.5163 23.5431L81.6979 27.2314C81.4571 27.3089 81.2166 27.3871 80.9765 27.4661L79.7698 23.786C80.0183 23.7042 80.2671 23.6232 80.5163 23.5431Z" fill="white"/>
<path d="M74.7838 25.555L76.1579 29.1758C75.9217 29.2658 75.6858 29.3565 75.4503 29.4481L74.0515 25.8368C74.2952 25.7421 74.5393 25.6481 74.7838 25.555Z" fill="white"/>
<path d="M69.1653 27.8668L70.728 31.41C70.4969 31.5123 70.2662 31.6153 70.0358 31.7192L68.4492 28.1867C68.6875 28.0793 68.9262 27.9726 69.1653 27.8668Z" fill="white"/>
<path d="M63.6762 30.4716L65.4227 33.9275C65.1974 34.0418 64.9724 34.1569 64.7479 34.2726L62.9781 30.8287C63.2104 30.7088 63.4431 30.5898 63.6762 30.4716Z" fill="white"/>
<path d="M58.3314 33.3615L59.4801 35.366L62.976 41.432L62.3062 41.8194L58.2015 34.6968L57.6531 33.7547C57.8787 33.6229 58.1048 33.4918 58.3314 33.3615Z" fill="white"/>
<path d="M53.1452 36.528L55.2432 39.7818C55.1368 39.8507 55.0305 39.9197 54.9244 39.9889C54.8189 40.0577 54.7135 40.1266 54.6082 40.1958L52.4884 36.9562C52.7068 36.8127 52.9258 36.67 53.1452 36.528Z" fill="white"/>
<path d="M48.1313 39.9618L50.396 43.1015C50.1913 43.2496 49.9872 43.3985 49.7836 43.548L47.4978 40.4237C47.7084 40.269 47.9196 40.1151 48.1313 39.9618Z" fill="white"/>
<path d="M43.3031 43.653L45.7281 46.6701C45.5314 46.8288 45.3352 46.9881 45.1396 47.1481L42.6944 44.1474C42.8967 43.9819 43.0996 43.8171 43.3031 43.653Z" fill="white"/>
<path d="M38.6732 47.5912L41.2517 50.4777C41.0635 50.6465 40.8759 50.8158 40.6888 50.9858L38.091 48.1167C38.2845 47.9409 38.4786 47.7657 38.6732 47.5912Z" fill="white"/>
<path d="M30.0577 56.1646L32.9216 58.7671C32.7519 58.9545 32.5829 59.1425 32.4145 59.331L29.5331 56.7478C29.7073 56.5528 29.8822 56.3584 30.0577 56.1646Z" fill="white"/>
<path d="M26.0955 60.7763L29.0908 63.2259C28.9311 63.4219 28.7721 63.6184 28.6137 63.8154L25.602 61.386C25.7658 61.1822 25.9303 60.979 26.0955 60.7763Z" fill="white"/>
<path d="M22.3786 65.5883L25.4972 67.8782C25.3479 68.0822 25.1994 68.2868 25.0515 68.4918L21.9175 66.223C22.0705 66.0109 22.2242 65.7993 22.3786 65.5883Z" fill="white"/>
<path d="M18.9173 70.588L22.151 72.7117C22.0126 72.9232 21.8749 73.1352 21.7379 73.3477L18.4899 71.2459C18.6316 71.0261 18.7741 70.8068 18.9173 70.588Z" fill="white"/>
<path d="M15.7216 75.762L16.6632 76.3121L23.7717 80.4235L23.385 81.0945L17.3295 77.5921L15.3291 76.4416C15.4592 76.2146 15.59 75.988 15.7216 75.762Z" fill="white"/>
<path d="M12.8008 81.0966L16.2386 82.8697C16.123 83.0946 16.0082 83.3199 15.8941 83.5457L12.4443 81.796C12.5624 81.5625 12.6812 81.3293 12.8008 81.0966Z" fill="white"/>
<path d="M10.1636 86.5776L13.6897 88.1671C13.5861 88.3978 13.4832 88.629 13.3811 88.8605L9.84428 87.295C9.94994 87.0554 10.0564 86.8163 10.1636 86.5776Z" fill="white"/>
<path d="M7.81797 92.19L11.4227 93.5913C11.3313 93.8273 11.2407 94.0636 11.1509 94.3003L7.53667 92.9237C7.62963 92.6787 7.7234 92.4342 7.81797 92.19Z" fill="white"/>
<path d="M5.7708 97.9187L9.44433 99.1276C9.36545 99.3681 9.28737 99.609 9.21007 99.8503L5.5284 98.6665C5.60838 98.4169 5.68919 98.1676 5.7708 97.9187Z" fill="white"/>
<path d="M4.0281 103.748L7.30616 104.637L13.0168 106.17L12.8166 106.919L4.41272 104.663L3.8253 104.508C3.89207 104.254 3.95967 104.001 4.0281 103.748Z" fill="white"/>
<path d="M2.59464 109.661L6.37483 110.475C6.32162 110.723 6.26921 110.971 6.21763 111.22L2.43199 110.431C2.48536 110.174 2.53958 109.917 2.59464 109.661Z" fill="white"/>
<path d="M1.4739 115.642L5.29161 116.256C5.25144 116.506 5.2121 116.757 5.17359 117.008L1.3518 116.42C1.39164 116.16 1.43234 115.901 1.4739 115.642Z" fill="white"/>
<path d="M0.667919 121.673L4.5125 122.086C4.48549 122.338 4.45932 122.591 4.43397 122.843L0.58669 122.456C0.612905 122.195 0.63998 121.934 0.667919 121.673Z" fill="white"/>
<path d="M0.1772 127.738L4.03804 127.951C4.02417 128.204 4.01114 128.457 3.99894 128.71L0.13677 128.523C0.149383 128.262 0.162862 128 0.1772 127.738Z" fill="white"/>
<path d="M0.000634228 133.821L2.20737 133.828L9.28 133.828L9.27999 134.603L2.20437 134.603L0.000624872 134.61L0 133.828L0.000634228 133.821Z" fill="white"/>
<path d="M0.136635 139.908C0.149238 140.17 0.16271 140.432 0.177046 140.693L4.03789 140.48C4.02403 140.228 4.011 139.975 3.99881 139.721L0.136635 139.908Z" fill="white"/>
<path d="M0.586409 145.975L4.4337 145.588C4.45904 145.841 4.48521 146.093 4.51222 146.345L0.667624 146.758C0.639689 146.498 0.612618 146.237 0.586409 145.975Z" fill="white"/>
<path d="M1.35138 152.012L5.17318 151.423C5.21169 151.674 5.25103 151.925 5.29119 152.175L1.47346 152.79C1.43191 152.531 1.39121 152.271 1.35138 152.012Z" fill="white"/>
<path d="M2.43143 158L6.21709 157.211C6.26866 157.46 6.32106 157.708 6.37427 157.956L2.59406 158.77C2.539 158.514 2.48479 158.257 2.43143 158Z" fill="white"/>
<path d="M7.21811 163.817L13.0161 162.261L12.816 161.513L4.47234 163.752L3.82459 163.924C3.89135 164.177 3.95895 164.431 4.02738 164.684L7.21811 163.817Z" fill="white"/>
<path d="M5.52756 169.765L9.20925 168.581C9.28654 168.822 9.36463 169.063 9.4435 169.304L5.76994 170.513C5.68833 170.264 5.60753 170.014 5.52756 169.765Z" fill="white"/>
<path d="M7.53569 175.508L11.1499 174.131C11.2398 174.368 11.3304 174.604 11.4218 174.84L7.81697 176.241C7.72241 175.997 7.62865 175.753 7.53569 175.508Z" fill="white"/>
<path d="M9.84317 181.136L13.38 179.571C13.4821 179.802 13.585 180.033 13.6886 180.264L10.1625 181.854C10.0553 181.615 9.94883 181.376 9.84317 181.136Z" fill="white"/>
<path d="M12.4431 186.635L15.8929 184.885C16.007 185.111 16.1218 185.336 16.2374 185.561L12.7995 187.334C12.68 187.102 12.5611 186.869 12.4431 186.635Z" fill="white"/>
<path d="M15.3277 191.989L17.3474 190.828L23.3838 187.336L23.7705 188.007L16.6507 192.125L15.7202 192.669C15.5886 192.443 15.4578 192.216 15.3277 191.989Z" fill="white"/>
<path d="M18.4884 197.185L21.7364 195.083C21.8734 195.296 22.0111 195.508 22.1495 195.719L18.9157 197.843C18.7726 197.624 18.6301 197.405 18.4884 197.185Z" fill="white"/>
<path d="M21.9159 202.208L25.0499 199.939C25.1978 200.144 25.3464 200.349 25.4956 200.553L22.3769 202.843C22.2225 202.632 22.0689 202.42 21.9159 202.208Z" fill="white"/>
<path d="M25.6003 207.045L28.612 204.615C28.7704 204.812 28.9294 205.009 29.0891 205.205L26.0938 207.654C25.9286 207.452 25.7641 207.249 25.6003 207.045Z" fill="white"/>
<path d="M29.5313 211.683L32.4127 209.1C32.5811 209.288 32.7502 209.476 32.9198 209.664L30.0558 212.266C29.8803 212.072 29.7055 211.878 29.5313 211.683Z" fill="white"/>
<path d="M33.698 216.11L34.8103 215.003L40.2633 209.54L40.8102 210.088L35.3248 215.583L34.2522 216.665L34.2485 216.661L25.5001 225.426L24.9532 224.878L33.7017 216.114L33.698 216.11Z" fill="white"/>
<path d="M38.089 220.314L40.6869 217.445C40.8739 217.615 41.0616 217.784 41.2498 217.953L38.6712 220.839C38.4765 220.665 38.2825 220.49 38.089 220.314Z" fill="white"/>
<path d="M45.1376 221.282C45.3332 221.442 45.5293 221.602 45.726 221.76L43.3009 224.777C43.0975 224.613 42.8946 224.448 42.6923 224.283L45.1376 221.282Z" fill="white"/>
<path d="M49.7814 224.882C49.985 225.032 50.1892 225.181 50.3939 225.329L48.1291 228.468C47.9174 228.315 47.7062 228.161 47.4955 228.007L49.7814 224.882Z" fill="white"/>
<path d="M54.606 228.234C54.8171 228.373 55.0288 228.511 55.2409 228.648L53.1429 231.902C52.9234 231.76 52.7045 231.617 52.4861 231.474L54.606 228.234Z" fill="white"/>
<path d="M62.304 226.611L62.9737 226.998L59.4766 233.066L58.329 235.069C58.1024 234.938 57.8763 234.807 57.6507 234.675L58.1995 233.733L62.304 226.611Z" fill="white"/>
<path d="M64.7456 234.157C64.9701 234.273 65.195 234.388 65.4204 234.502L63.6738 237.958C63.4406 237.84 63.2079 237.721 62.9757 237.601L64.7456 234.157Z" fill="white"/>
<path d="M70.0334 236.711C70.2637 236.814 70.4944 236.917 70.7255 237.02L69.1628 240.563C68.9237 240.457 68.6849 240.35 68.4467 240.243L70.0334 236.711Z" fill="white"/>
<path d="M74.0489 242.593L75.4478 238.981C75.6833 239.073 75.9192 239.164 76.1555 239.254L74.7812 242.875C74.5367 242.781 74.2926 242.688 74.0489 242.593Z" fill="white"/>
<path d="M79.7672 244.644L80.974 240.963C81.2141 241.042 81.4545 241.121 81.6954 241.198L80.5137 244.886C80.2645 244.806 80.0156 244.725 79.7672 244.644Z" fill="white"/>
<path d="M85.5856 246.389L86.4689 243.124L88.0041 237.384L88.751 237.585L86.5024 245.992L86.3443 246.592C86.0911 246.526 85.8382 246.458 85.5856 246.389Z" fill="white"/>
<path d="M91.4881 247.825L92.3013 244.038C92.5486 244.091 92.7963 244.144 93.0443 244.196L92.2569 247.988C92.0003 247.935 91.744 247.88 91.4881 247.825Z" fill="white"/>
<path d="M97.458 248.948L98.0713 245.123C98.3213 245.163 98.5716 245.203 98.8222 245.241L98.2349 249.07C97.9756 249.03 97.7166 248.989 97.458 248.948Z" fill="white"/>
<path d="M103.479 249.755L103.891 245.904C104.143 245.931 104.395 245.957 104.647 245.982L104.26 249.836C103.999 249.81 103.739 249.783 103.479 249.755Z" fill="white"/>
<path d="M109.533 250.247L109.745 246.379C109.997 246.393 110.25 246.406 110.503 246.418L110.317 250.287C110.055 250.274 109.794 250.261 109.533 250.247Z" fill="white"/>
<path d="M115.999 250.424H115.612L115.612 250.405L115.605 250.423L115.612 248.206L115.612 241.127H116.385L116.385 248.219L116.386 248.486L116.385 248.489L116.385 250.424L116.208 250.424C116.138 250.424 116.068 250.424 115.999 250.424Z" fill="white"/>
<path d="M121.681 250.287C121.745 250.284 121.809 250.281 121.874 250.277C121.967 250.273 122.06 250.268 122.153 250.263L122.308 250.255L122.464 250.246L122.252 246.379C122 246.392 121.747 246.406 121.494 246.418L121.681 250.287Z" fill="white"/>
<path d="M127.737 249.836L127.35 245.982C127.603 245.957 127.854 245.93 128.106 245.903L128.519 249.755C128.258 249.783 127.998 249.81 127.737 249.836Z" fill="white"/>
<path d="M133.762 249.07L133.175 245.241C133.426 245.202 133.676 245.163 133.926 245.123L134.539 248.947C134.281 248.989 134.022 249.03 133.762 249.07Z" fill="white"/>
<path d="M139.74 247.988L138.953 244.195C139.201 244.143 139.449 244.091 139.696 244.038L140.509 247.825C140.253 247.88 139.997 247.934 139.74 247.988Z" fill="white"/>
<path d="M145.653 246.592L145.498 246.002L143.246 237.584L143.993 237.384L145.523 243.104L146.412 246.389C146.159 246.457 145.906 246.525 145.653 246.592Z" fill="white"/>
<path d="M151.484 244.886L150.302 241.197C150.543 241.12 150.783 241.042 151.023 240.963L152.23 244.643C151.982 244.724 151.733 244.805 151.484 244.886Z" fill="white"/>
<path d="M157.216 242.874L155.842 239.253C156.078 239.163 156.314 239.072 156.55 238.981L157.948 242.592C157.705 242.687 157.461 242.78 157.216 242.874Z" fill="white"/>
<path d="M162.835 240.562L161.272 237.019C161.503 236.916 161.734 236.813 161.964 236.709L163.551 240.242C163.312 240.349 163.074 240.456 162.835 240.562Z" fill="white"/>
<path d="M168.324 237.957L166.577 234.501C166.803 234.387 167.027 234.272 167.252 234.156L169.022 237.6C168.79 237.72 168.557 237.839 168.324 237.957Z" fill="white"/>
<path d="M173.668 235.067C173.806 234.988 173.943 234.909 174.08 234.829C174.169 234.778 174.258 234.726 174.347 234.674L173.803 233.739L169.694 226.609L169.024 226.997L172.511 233.048L173.668 235.067Z" fill="white"/>
<path d="M178.855 231.901L176.757 228.647C176.907 228.55 177.056 228.453 177.205 228.355C177.267 228.314 177.33 228.274 177.392 228.233L179.512 231.472C179.293 231.616 179.074 231.759 178.855 231.901Z" fill="white"/>
<path d="M183.869 228.467L181.604 225.327C181.7 225.257 181.797 225.187 181.893 225.117C181.95 225.076 182.007 225.034 182.064 224.993L182.216 224.881L184.502 228.005C184.292 228.16 184.08 228.314 183.869 228.467Z" fill="white"/>
<path d="M188.697 224.776L186.272 221.759C186.469 221.6 186.665 221.441 186.86 221.281L189.306 224.281C189.103 224.447 188.9 224.612 188.697 224.776Z" fill="white"/>
<path d="M193.327 220.837L190.748 217.951C190.936 217.782 191.124 217.613 191.311 217.443L193.909 220.312C193.715 220.488 193.521 220.663 193.327 220.837Z" fill="white"/>
<path d="M191.735 209.538L191.188 210.086L196.651 215.559L197.746 216.663L197.75 216.659L206.5 225.426L207.047 224.878L198.296 216.112L198.3 216.108L197.235 215.048L191.735 209.538Z" fill="white"/>
<path d="M201.942 212.264L199.078 209.662C199.248 209.474 199.417 209.286 199.585 209.098L202.467 211.681C202.293 211.876 202.118 212.07 201.942 212.264Z" fill="white"/>
<path d="M206.281 207.187C206.156 207.343 206.03 207.498 205.904 207.652L202.909 205.203C202.984 205.111 203.058 205.019 203.133 204.927C203.217 204.823 203.302 204.718 203.386 204.613L206.398 207.043C206.359 207.091 206.32 207.139 206.281 207.187Z" fill="white"/>
<path d="M209.621 202.84L206.503 200.55C206.652 200.346 206.801 200.142 206.949 199.937L210.082 202.206C209.929 202.418 209.776 202.629 209.621 202.84Z" fill="white"/>
<path d="M213.51 197.183C213.368 197.403 213.226 197.622 213.083 197.841L209.849 195.717C209.987 195.505 210.125 195.293 210.262 195.081L213.51 197.183Z" fill="white"/>
<path d="M214.659 190.83L208.615 187.334L208.228 188.005L215.346 192.122L216.278 192.667C216.41 192.441 216.541 192.214 216.671 191.987L214.659 190.83Z" fill="white"/>
<path d="M219.556 186.633C219.438 186.866 219.319 187.099 219.199 187.332L215.761 185.559C215.877 185.334 215.992 185.109 216.106 184.883L219.556 186.633Z" fill="white"/>
<path d="M221.836 181.851L218.31 180.262C218.362 180.145 218.414 180.029 218.466 179.913C218.517 179.798 218.568 179.683 218.619 179.568L222.156 181.134C222.05 181.373 221.944 181.612 221.836 181.851Z" fill="white"/>
<path d="M224.182 176.239L220.577 174.837C220.669 174.601 220.759 174.365 220.849 174.128L224.463 175.505C224.37 175.75 224.277 175.994 224.182 176.239Z" fill="white"/>
<path d="M226.229 170.51L222.556 169.301C222.634 169.061 222.713 168.82 222.79 168.578L226.472 169.762C226.392 170.012 226.311 170.261 226.229 170.51Z" fill="white"/>
<path d="M227.972 164.681L224.721 163.798L218.983 162.258L219.183 161.51L227.569 163.761L228.175 163.921C228.108 164.175 228.04 164.428 227.972 164.681Z" fill="white"/>
<path d="M229.405 158.768L225.625 157.953C225.678 157.705 225.731 157.457 225.782 157.209L229.568 157.998C229.515 158.255 229.46 158.511 229.405 158.768Z" fill="white"/>
<path d="M230.526 152.787L226.708 152.173C226.748 151.922 226.788 151.672 226.826 151.42L230.648 152.009C230.629 152.131 230.61 152.253 230.591 152.375C230.57 152.513 230.548 152.65 230.526 152.787Z" fill="white"/>
<path d="M231.332 146.756L227.487 146.342C227.514 146.09 227.541 145.838 227.566 145.585L231.413 145.973C231.387 146.234 231.36 146.495 231.332 146.756Z" fill="white"/>
<path d="M231.823 140.69L227.962 140.478C227.976 140.225 227.989 139.972 228.001 139.719L231.863 139.905C231.851 140.167 231.837 140.429 231.823 140.69Z" fill="white"/>
<path d="M231.999 134.608L229.796 134.6L222.72 134.6L222.72 133.826L229.791 133.826L231.999 133.818L231.999 133.826L232 133.978L232 134.6L231.999 134.608Z" fill="white"/>
<path d="M231.863 128.521L228.001 128.707L227.995 128.58L227.989 128.452C227.984 128.368 227.98 128.284 227.976 128.2L227.962 127.948L231.823 127.736L231.832 127.913C231.835 127.958 231.837 128.004 231.84 128.05C231.843 128.119 231.847 128.189 231.85 128.258L231.854 128.341C231.857 128.401 231.86 128.461 231.863 128.521Z" fill="white"/>
<path d="M231.413 122.453L227.566 122.841C227.555 122.73 227.544 122.62 227.532 122.509C227.525 122.44 227.518 122.372 227.511 122.303C227.503 122.23 227.496 122.157 227.488 122.084L231.332 121.67L231.346 121.795C231.353 121.867 231.361 121.939 231.368 122.012C231.384 122.159 231.399 122.306 231.413 122.453Z" fill="white"/>
<path d="M230.649 116.417L226.827 117.006C226.788 116.754 226.749 116.504 226.709 116.253L230.526 115.639C230.553 115.804 230.579 115.97 230.605 116.135L230.63 116.294L230.649 116.417Z" fill="white"/>
<path d="M229.569 110.428L225.783 111.217C225.731 110.969 225.679 110.721 225.626 110.473L229.406 109.658C229.461 109.915 229.515 110.171 229.569 110.428Z" fill="white"/>
<path d="M228.175 104.505L227.63 104.649L219.184 106.916L218.984 106.168L224.637 104.651L227.973 103.745C228.041 103.998 228.109 104.251 228.175 104.505Z" fill="white"/>
<path d="M226.472 98.6639C226.392 98.4142 226.312 98.165 226.23 97.9161L222.556 99.125C222.6 99.2578 222.643 99.3906 222.686 99.5235C222.721 99.6315 222.756 99.7396 222.791 99.8477L226.472 98.6639Z" fill="white"/>
<path d="M224.464 92.9211L220.85 94.2978C220.76 94.0611 220.67 93.8248 220.578 93.5888L224.183 92.1875C224.278 92.4316 224.371 92.6761 224.464 92.9211Z" fill="white"/>
<path d="M222.157 87.2925L218.62 88.8581C218.518 88.6265 218.415 88.3954 218.311 88.1647L221.837 86.5751C221.945 86.8138 222.051 87.0529 222.157 87.2925Z" fill="white"/>
<path d="M219.2 81.0942C219.32 81.3269 219.439 81.56 219.557 81.7936L216.107 83.5433C216.045 83.421 215.983 83.2988 215.921 83.1768C215.868 83.0735 215.816 82.9704 215.763 82.8673L219.2 81.0942Z" fill="white"/>
<path d="M216.672 76.4392C216.542 76.2122 216.411 75.9857 216.28 75.7596L215.337 76.3102L208.23 80.4214L208.616 81.0923L214.675 77.5881L216.672 76.4392Z" fill="white"/>
<path d="M213.084 70.5857C213.227 70.8045 213.37 71.0238 213.512 71.2436L210.264 73.3455C210.127 73.133 209.989 72.9209 209.85 72.7094L213.084 70.5857Z" fill="white"/>
<path d="M209.623 65.5861C209.777 65.7971 209.931 66.0087 210.084 66.2208L206.95 68.4897C206.802 68.2846 206.654 68.0801 206.504 67.8761L209.623 65.5861Z" fill="white"/>
<path d="M206.4 61.3839L203.388 63.8134L203.323 63.7322C203.285 63.686 203.248 63.6398 203.211 63.5937C203.111 63.4702 203.011 63.3469 202.911 63.2239L205.906 60.7742C205.981 60.866 206.056 60.958 206.13 61.05C206.18 61.1118 206.23 61.1736 206.28 61.2355L206.4 61.3839Z" fill="white"/>
<path d="M202.469 56.7458L199.587 59.329C199.419 59.1405 199.25 58.9525 199.08 58.7651L201.944 56.1626C202.12 56.3564 202.294 56.5508 202.469 56.7458Z" fill="white"/>
<path d="M196.643 52.8774L191.19 58.3408L191.737 58.8886L197.22 53.3953L198.302 52.3188L198.298 52.3151L207.047 43.5509L206.5 43.0031L197.752 51.7673L197.748 51.7636L196.643 52.8774Z" fill="white"/>
<path d="M193.911 48.1149L191.313 50.984C191.126 50.8141 190.938 50.6447 190.75 50.476L193.329 47.5894C193.523 47.7639 193.717 47.939 193.911 48.1149Z" fill="white"/>
<path d="M189.308 44.1457L186.862 47.1464C186.667 46.9864 186.471 46.8271 186.274 46.6684L188.699 43.6513C188.902 43.8154 189.105 43.9802 189.308 44.1457Z" fill="white"/>
<path d="M184.504 40.4221L182.219 43.5464C182.015 43.3969 181.811 43.2481 181.606 43.0999L183.871 39.9602C184.083 40.1135 184.294 40.2674 184.504 40.4221Z" fill="white"/>
<path d="M179.514 36.9547L177.394 40.1943C177.311 40.1401 177.229 40.0859 177.146 40.0319C177.095 39.999 177.045 39.966 176.994 39.9331C176.916 39.8821 176.838 39.8312 176.759 39.7804L178.857 36.5265C178.947 36.585 179.038 36.6436 179.128 36.7023C179.257 36.7862 179.385 36.8703 179.514 36.9547Z" fill="white"/>
<path d="M172.511 35.3834L169.026 41.4308L169.696 41.8182L173.807 34.6855L174.349 33.7533C174.124 33.6215 173.897 33.4904 173.671 33.3601L172.511 35.3834Z" fill="white"/>
<path d="M169.024 30.8274L167.254 34.2714C167.03 34.1556 166.805 34.0406 166.58 33.9263L168.326 30.4703C168.413 30.5142 168.499 30.5582 168.586 30.6023C168.672 30.6463 168.758 30.6903 168.844 30.7344L169.024 30.8274Z" fill="white"/>
<path d="M163.553 28.1856L161.967 31.7181C161.736 31.6143 161.506 31.5112 161.274 31.4089L162.837 27.8657C162.945 27.9134 163.053 27.9613 163.16 28.0094C163.212 28.0323 163.263 28.0553 163.315 28.0783C163.394 28.114 163.474 28.1497 163.553 28.1856Z" fill="white"/>
<path d="M157.951 25.8358L156.552 29.4471C156.445 29.4056 156.339 29.3643 156.232 29.3231C156.103 29.2735 155.974 29.224 155.844 29.1748L157.219 25.554C157.463 25.6472 157.707 25.7411 157.951 25.8358Z" fill="white"/>
<path d="M152.233 23.7851L151.026 27.4653C150.786 27.3863 150.545 27.308 150.305 27.2306L151.486 23.5423C151.735 23.6224 151.984 23.7033 152.233 23.7851Z" fill="white"/>
<path d="M146.414 22.0394L145.531 25.3037L143.996 31.0444L143.249 30.8439L145.496 22.4418L145.656 21.8362C145.909 21.9031 146.162 21.9708 146.414 22.0394Z" fill="white"/>
<path d="M140.512 20.6035L139.699 24.3905C139.451 24.3372 139.204 24.2847 138.956 24.233L139.743 20.4405C140 20.494 140.256 20.5483 140.512 20.6035Z" fill="white"/>
<path d="M134.542 19.4808L133.929 23.3055C133.679 23.2653 133.428 23.2258 133.178 23.1873L133.765 19.3585C134.024 19.3984 134.283 19.4392 134.542 19.4808Z" fill="white"/>
<path d="M128.521 18.6736L128.109 22.5251C128.031 22.5168 127.954 22.5085 127.877 22.5004C127.804 22.4927 127.731 22.4851 127.658 22.4775C127.556 22.467 127.455 22.4567 127.353 22.4465L127.74 18.5922C127.838 18.6021 127.936 18.6121 128.034 18.6222C128.197 18.639 128.359 18.6561 128.521 18.6736Z" fill="white"/>
<path d="M122.467 18.1821L122.255 22.0499C122.002 22.036 121.75 22.023 121.497 22.0108L121.683 18.1416C121.945 18.1542 122.206 18.1677 122.467 18.1821Z" fill="white"/>
<path d="M114.252 0V0.857366H117.675V0H114.252Z" fill="white"/>
<path d="M115.536 4.28683H116.391V5.57288H117.675V6.43025H116.391V7.7163H115.536V6.43025H114.252V5.57288H115.536V4.28683Z" fill="white"/>
<path d="M115.964 11.1457L118.959 14.5751H112.968L115.964 11.1457Z" fill="white"/>
</svg>
