<svg width="24" height="17" viewBox="0 0 24 17" fill="none" xmlns="http://www.w3.org/2000/svg">
<path d="M23.4735 2.67641C23.2101 1.6234 22.3766 0.789757 21.3674 0.526507C19.4808 0 12.0219 0 12.0219 0C12.0219 0 4.51918 0 2.63253 0.526507C1.6234 0.789757 0.78976 1.6234 0.526506 2.67641C3.71938e-08 4.51918 0 8.46799 0 8.46799C0 8.46799 3.71938e-08 12.373 0.526506 14.2596C0.78976 15.3125 1.6234 16.1023 2.63253 16.3656C4.51918 16.8482 12.0219 16.8482 12.0219 16.8482C12.0219 16.8482 19.4808 16.8482 21.3674 16.3656C22.3766 16.1023 23.2101 15.3125 23.4735 14.2596C24 12.373 24 8.46799 24 8.46799C24 8.46799 24 4.51918 23.4735 2.67641ZM9.56488 12.0219V4.91407L15.7952 8.46799L9.56488 12.0219Z" fill="#F8F9FC"/>
</svg>
